<svg width="150" height="150" viewBox="0 0 150 150" fill="none" xmlns="http://www.w3.org/2000/svg">
<g clip-path="url(#clip0_0_15619)">
<path d="M74.6992 150.17C33.3392 150.17 -0.300781 116.53 -0.300781 75.1699C-0.300781 33.8099 33.3392 0.169922 74.6992 0.169922C116.059 0.169922 149.699 33.8099 149.699 75.1699C149.699 116.53 116.049 150.17 74.6992 150.17ZM74.6992 4.16992C35.5492 4.16992 3.69922 36.0199 3.69922 75.1699C3.69922 114.32 35.5492 146.17 74.6992 146.17C113.849 146.17 145.699 114.32 145.699 75.1699C145.699 36.0199 113.849 4.16992 74.6992 4.16992Z" fill="#26648F"/>
<path d="M74.254 44.5741C74.059 44.6551 73.782 44.9491 73.635 45.2091C73.423 45.6491 73.407 45.7791 73.619 46.2511C74.222 47.7011 76.16 47.2281 76.16 45.6481C76.16 44.8181 75.101 44.2161 74.254 44.5741Z" fill="#26648F"/>
<path d="M84.6614 45.5511C82.2344 46.0561 80.3614 47.9781 79.0914 51.2521C78.5054 52.7671 77.3324 55.0471 76.6804 55.8941C76.3384 56.3341 75.8013 56.8551 75.4753 57.0341L74.8724 57.3431L74.2864 56.8711C73.6674 56.3661 72.9674 55.2101 72.6084 54.1021C71.9244 52.0171 70.5074 50.0791 69.2374 49.4761C67.2664 48.5481 65.4094 49.3781 64.5954 51.5441C64.0744 52.9451 64.1394 55.2251 64.7914 57.8151C65.3454 60.0301 65.3294 60.4051 64.6284 60.5021C64.2704 60.5511 63.8794 60.3721 61.7454 59.2321C60.5404 58.5641 60.3774 58.5151 59.2204 58.5321C57.8524 58.5481 57.0864 58.8091 56.2074 59.5741C55.4254 60.2741 55.0674 61.0721 55.0834 62.1801C55.0994 63.1901 55.2134 63.4021 56.9404 65.4861C58.1944 67.0011 58.5044 67.6201 58.2114 68.0111C57.8854 68.4181 57.5434 68.6461 57.1034 68.7441C55.5074 69.1021 54.3994 69.3141 53.1944 69.4931C51.5334 69.7541 50.6374 70.1281 49.7904 70.9591C49.2044 71.5291 49.0244 71.8391 48.4874 73.1251C48.2594 73.6951 48.2594 76.1061 48.4874 76.8391C48.8294 77.9471 49.3834 78.8751 50.0994 79.5921C51.4514 80.9601 53.0964 81.4651 55.2134 81.1721C57.2984 80.8951 58.7314 81.4651 58.7314 82.6051C58.7314 83.2891 57.9333 84.5111 56.6793 85.7321C56.0933 86.3021 55.4573 87.1331 55.2293 87.6051C54.2033 89.7391 55.1644 92.0681 57.6234 93.3061C59.2844 94.1531 60.3924 94.2671 61.8744 93.7781C63.0954 93.3871 63.8454 92.8661 64.5124 91.9381C65.6364 90.4071 66.3204 90.3261 66.8414 91.6941C67.3134 92.8991 67.5094 93.9741 68.0144 98.0791C68.3894 101.141 68.6494 102.069 69.4474 103.307C70.5714 105.033 72.0694 105.848 74.2034 105.88C75.8154 105.896 76.6954 105.652 77.9174 104.87C80.0184 103.502 80.9304 101.629 81.2074 98.0781C81.3704 95.9771 81.5654 95.2601 82.1194 94.5761C82.9984 93.5501 83.8944 94.0711 86.0934 96.8401C88.0314 99.2991 90.7194 100.602 92.8854 100.114C95.3774 99.5771 96.9734 97.8501 97.1364 95.5211C97.2174 94.4301 96.7294 92.7521 96.0454 91.7421C95.2964 90.6671 94.8404 89.6741 95.0194 89.4941C95.1984 89.3151 95.3614 89.3151 97.3814 89.4611C99.3034 89.5911 100.508 89.3631 101.567 88.6471C103.017 87.6701 103.684 86.5131 103.684 84.9661C103.684 82.0341 101.273 80.4221 96.8434 80.4061C94.5144 80.3901 94.1234 79.8851 95.5894 78.7771C97.0714 77.6531 97.7554 76.1221 97.2674 74.9981C96.9414 74.2321 96.3554 73.9231 94.8734 73.7281C94.2224 73.6631 93.5864 73.4841 93.4564 73.3371C92.8864 72.7671 94.5644 71.4801 97.0074 70.6331C99.3034 69.8351 100.427 68.4831 100.427 66.4801C100.411 63.6461 97.8704 60.9591 95.2154 60.9911C94.8894 60.9911 93.8474 61.2681 92.9024 61.5771C91.0134 62.2121 90.6544 62.2611 90.3614 61.9681C89.9704 61.5771 90.2474 60.5671 91.4034 58.1401C92.5434 55.7951 92.9344 54.3611 92.9344 52.6191C92.9344 49.3291 91.3384 46.9021 88.4884 45.8601C87.5114 45.5021 85.6224 45.3561 84.6614 45.5511Z" fill="#26648F"/>
<path d="M46.4346 47.1469C45.3926 47.3589 45.0506 48.5969 45.7996 49.3619C46.3206 49.8829 46.9727 49.9159 47.5587 49.4429C47.9007 49.1819 47.9817 48.9709 47.9817 48.4169C47.9827 47.4729 47.3636 46.9679 46.4346 47.1469Z" fill="#26648F"/>
<path d="M50.7354 52.441C50.1494 52.832 49.6273 53.695 49.6113 54.281C49.6113 54.884 50.0833 55.779 50.6373 56.203C51.0773 56.545 51.3703 56.626 52.1033 56.626C52.9343 56.626 53.0804 56.577 53.5854 56.056C54.7414 54.9 54.4973 52.994 53.0803 52.261C52.4783 51.936 51.3544 52.017 50.7354 52.441Z" fill="#26648F"/>
<path d="M97.9203 54.3792C97.5943 54.8352 97.5943 55.1612 97.9203 55.6172C98.3113 56.1872 99.2883 56.0732 99.5983 55.4222C99.7943 55.0152 99.7773 54.9172 99.5003 54.5262C99.0603 53.9552 98.2783 53.8742 97.9203 54.3792Z" fill="#26648F"/>
<path d="M101.307 71.9202C100.607 72.3432 100.134 73.0602 100.102 73.7282C100.021 75.1452 100.086 75.3402 100.835 76.0902C101.535 76.7902 101.601 76.8232 102.545 76.8232C103.294 76.8232 103.669 76.7422 104.092 76.4482C105.737 75.3732 105.688 72.8972 104.011 71.9532C103.229 71.5132 102.008 71.4972 101.307 71.9202Z" fill="#26648F"/>
<path d="M44.4319 84.4131C43.9269 84.7711 44.0088 85.5531 44.5788 85.9931C44.9538 86.2541 45.0678 86.2701 45.3928 86.1071C45.8978 85.8301 46.0278 85.6351 46.0278 85.0971C46.0278 84.8201 45.8808 84.5601 45.6698 84.4131C45.2138 84.0871 44.8879 84.0871 44.4319 84.4131Z" fill="#26648F"/>
<path d="M50.9784 95.1461C49.3334 96.1231 49.2684 98.5501 50.8644 99.6251C51.7274 100.211 53.1124 100.179 53.9424 99.5441C55.5714 98.3061 55.2614 95.7491 53.3724 94.9671C52.5584 94.6251 51.7444 94.6901 50.9784 95.1461Z" fill="#26648F"/>
<path d="M46.4838 102.166C45.6038 102.638 45.4418 103.616 46.1258 104.3C46.4678 104.642 46.6468 104.707 47.1678 104.626C48.0148 104.512 48.3078 104.203 48.3078 103.356C48.3078 102.867 48.2098 102.59 47.9498 102.379C47.7708 102.2 47.5428 102.07 47.4778 102.07C47.4128 102.07 47.2658 102.037 47.1358 101.989C47.0218 101.954 46.7278 102.019 46.4838 102.166Z" fill="#26648F"/>
</g>
<defs>
<clipPath id="clip0_0_15619">
<rect width="150" height="150" fill="white"/>
</clipPath>
</defs>
</svg>
