<svg width="54" height="54" viewBox="0 0 54 54" fill="none" xmlns="http://www.w3.org/2000/svg">
<path d="M36.0664 18.9H17.9336C16.8165 18.9 15.9 19.7828 15.9 20.8738V33.366C15.9 34.4533 16.8124 35.3398 17.9336 35.3398H36.0664C37.1806 35.3398 38.1 34.4601 38.1 33.366V20.8738C38.1 19.7865 37.1876 18.9 36.0664 18.9ZM27.0407 28.598L18.4553 20.3492H35.5525L27.0407 28.598ZM23.3531 27.0915L17.3891 32.8712V21.3613L23.3531 27.0915ZM29.6211 28.1425L35.5526 33.8906H18.4474L24.4129 28.1096L26.5199 30.134C26.8107 30.4134 27.2787 30.4125 27.5683 30.1318C27.5683 30.1318 27.5683 30.1318 27.5683 30.1318L29.6211 28.1425ZM36.6109 21.3687V32.8711L30.6763 27.1199L36.6109 21.3687Z" fill="#0A5A8F" stroke="#0A5A8F" stroke-width="0.2"/>
<circle cx="27" cy="27" r="26" stroke="#0A5A8F" stroke-width="2"/>
</svg>
