<svg width="54" height="54" viewBox="0 0 54 54" fill="none" xmlns="http://www.w3.org/2000/svg">
<g clip-path="url(#clip0_0_11214)">
<path d="M21.4255 25.1911C21.4255 27.2924 23.135 29.0019 25.2363 29.0019C25.7317 29.0019 26.133 29.4034 26.133 29.8986C26.133 30.3939 25.7317 30.7952 25.2363 30.7952C22.1462 30.7952 19.6321 28.2812 19.6321 25.1911C19.6321 22.1008 22.1462 19.5867 25.2363 19.5867C28.3266 19.5867 30.8406 22.1008 30.8406 25.1911C30.8406 25.6863 30.4392 26.0877 29.944 26.0877C29.4488 26.0877 29.0473 25.6863 29.0473 25.1911C29.0473 23.0897 27.3376 21.3801 25.2363 21.3801C23.135 21.3801 21.4255 23.0897 21.4255 25.1911ZM22.13 33.122C19.829 30.6024 17.8419 28.4261 17.8388 25.1823C17.8435 21.1081 21.1621 17.7934 25.2363 17.7934C29.3107 17.7934 32.6291 21.1081 32.6338 25.1823C32.6345 25.6773 33.0358 26.0781 33.5305 26.0779H33.5316C34.0268 26.0774 34.4279 25.6754 34.4272 25.1802C34.4244 22.7274 33.4672 20.422 31.7317 18.6885C29.9963 16.9548 27.6895 16 25.2363 16C22.7833 16 20.4765 16.9548 18.7409 18.6885C17.0056 20.422 16.0482 22.7274 16.0454 25.1821C16.0472 26.969 16.5434 28.6455 17.5627 30.3074C18.4452 31.7465 19.5918 33.002 20.8057 34.3314C21.9958 35.6349 23.2266 36.9825 24.2094 38.5376C24.38 38.8075 24.6707 38.9552 24.9682 38.9552C25.1321 38.9552 25.2977 38.9105 25.4465 38.8164C25.865 38.5518 25.99 37.998 25.7254 37.5793C24.6578 35.8903 23.3727 34.483 22.13 33.122ZM38.7655 33.5523C38.5886 33.7459 38.3464 33.844 38.1036 33.844C37.8874 33.844 37.6707 33.7664 37.4987 33.6092L37.3864 33.5065V36.4736C37.3864 37.8667 36.2539 39 34.862 39H29.8231C28.4312 39 27.2987 37.8667 27.2987 36.4736V33.5476L27.2313 33.6092C26.8658 33.9434 26.2986 33.918 25.9643 33.5525C25.6302 33.187 25.6557 32.6197 26.0212 32.2856L30.6494 28.0541C31.6275 27.1601 33.1025 27.1601 34.0805 28.0541L37.0458 30.7654C37.0786 30.7914 37.1095 30.8196 37.1383 30.8498L38.7088 32.2856C39.0743 32.6197 39.0998 33.187 38.7655 33.5523ZM35.5931 31.8669L32.8704 29.3777C32.5822 29.1144 32.1478 29.1144 31.8596 29.3777L29.092 31.9078V36.4736C29.092 36.8778 29.42 37.2066 29.8232 37.2066H34.862C35.2651 37.2066 35.5931 36.8778 35.5931 36.4736V31.8669Z" fill="#0A5A8F"/>
</g>
<circle cx="27" cy="27" r="26" stroke="#0A5A8F" stroke-width="2"/>
<defs>
<clipPath id="clip0_0_11214">
<rect width="23" height="23" fill="white" transform="translate(16 16)"/>
</clipPath>
</defs>
</svg>
