<svg width="54" height="54" viewBox="0 0 54 54" fill="none" xmlns="http://www.w3.org/2000/svg">
<path d="M32.2051 30.2301C31.5517 29.5851 30.736 29.5851 30.0867 30.2301C29.5915 30.7212 29.0962 31.2123 28.6093 31.7117C28.4761 31.8491 28.3638 31.8782 28.2014 31.7867C27.881 31.6119 27.5397 31.4704 27.2317 31.2789C25.7959 30.3758 24.5932 29.2147 23.5277 27.9079C22.9992 27.2586 22.5289 26.5636 22.2001 25.7812C22.1335 25.623 22.146 25.519 22.275 25.39C22.7703 24.9114 23.253 24.4203 23.74 23.9292C24.4184 23.2466 24.4184 22.4476 23.7358 21.7609C23.3488 21.3697 22.9617 20.9868 22.5747 20.5956C22.1751 20.196 21.7798 19.7923 21.3761 19.397C20.7227 18.7602 19.907 18.7602 19.2577 19.4011C18.7583 19.8922 18.2797 20.3958 17.7719 20.8786C17.3017 21.3239 17.0644 21.8691 17.0145 22.5058C16.9354 23.5421 17.1893 24.5202 17.5472 25.4732C18.2797 27.4459 19.395 29.198 20.7476 30.8045C22.5747 32.9769 24.7555 34.6958 27.3067 35.936C28.4553 36.4937 29.6456 36.9223 30.9399 36.9931C31.8305 37.043 32.6046 36.8183 33.2247 36.1233C33.6493 35.6488 34.1279 35.216 34.5773 34.7624C35.2432 34.0881 35.2474 33.2724 34.5857 32.6065C33.7949 31.8116 33 31.0209 32.2051 30.2301Z" fill="#0A5A8F"/>
<path d="M31.4103 26.9132L32.946 26.651C32.7047 25.2402 32.0388 23.9625 31.0274 22.947C29.9579 21.8774 28.6053 21.2032 27.1153 20.9951L26.8989 22.5391C28.0517 22.7015 29.1005 23.2217 29.9287 24.0499C30.7111 24.8323 31.223 25.8228 31.4103 26.9132Z" fill="#0A5A8F"/>
<path d="M33.8114 20.2379C32.0384 18.465 29.7952 17.3454 27.319 17L27.1025 18.544C29.2417 18.8437 31.1811 19.8134 32.7127 21.3408C34.1651 22.7932 35.1182 24.6286 35.4636 26.6471L36.9993 26.3849C36.5956 24.0459 35.4928 21.9234 33.8114 20.2379Z" fill="#0A5A8F"/>
<circle cx="27" cy="27" r="26" stroke="#0A5A8F" stroke-width="2"/>
</svg>
