<svg width="60" height="57" viewBox="0 0 60 57" fill="none" xmlns="http://www.w3.org/2000/svg">
<path d="M0.8125 30.5579V47.9244C0.8125 47.9244 11.5461 48.2663 13.4362 48.8816C15.3264 49.497 29.1652 56.3342 30.2453 56.1291C31.3254 55.9923 58.8006 34.6602 59.4082 33.5663C60.0157 32.4723 61.0283 27.6179 54.9527 28.3016C54.9527 28.3016 29.6378 43.9588 29.6378 44.2323C29.6378 44.5058 16.2715 40.7453 16.2715 40.7453C16.2715 40.7453 15.3939 38.4207 16.8116 38.4207C18.1617 38.4207 27.2751 42.3863 29.2328 42.1812C31.1905 41.976 33.8232 38.2156 31.3254 35.5491C31.3254 35.5491 16.1365 27.8914 15.8665 27.7546C15.5289 27.6179 0.8125 30.5579 0.8125 30.5579Z" fill="#24638E"/>
<path d="M35.4462 38.8294L50.2976 29.7359C50.2976 29.7359 49.7575 27.0694 46.1122 28.3001L34.4336 35.4108L35.4462 38.8294Z" fill="#24638E"/>
<path d="M51.9169 2.25628V2.18791C51.2418 0.683722 47.934 0 44.8962 0C44.8962 0 44.8962 0 44.8287 0C41.8584 0 38.5506 0.683722 37.8755 2.18791V2.25628C37.808 2.39303 37.7405 2.59815 37.7405 2.80326V7.93118C36.6604 7.72606 35.5128 7.65769 34.3652 7.65769C34.2977 7.65769 34.2977 7.65769 34.2301 7.65769C31.4624 7.65769 28.0195 8.27304 27.3445 9.8456V9.91397C27.277 10.0507 27.2095 10.2558 27.2095 10.461V15.4521C26.5344 15.247 25.8593 15.0419 25.1168 15.0419C21.4714 15.0419 18.4336 18.0503 18.4336 21.8107C18.4336 25.5712 21.3364 28.4428 24.9817 28.4428C26.9394 28.4428 28.6271 27.6224 29.8422 26.2549C29.9097 26.2549 29.9772 26.3233 30.0447 26.3233H30.1122C31.3274 26.6652 32.8125 26.8019 34.2977 26.8019C35.7828 26.8019 37.2679 26.5968 38.4831 26.3233C39.0231 26.1866 39.4282 26.0498 39.8332 25.8447C40.0357 25.7763 40.1707 25.6396 40.3057 25.5712L40.5083 25.4345C41.0483 25.0242 41.3859 24.5456 41.3859 23.9987V22.2893C42.466 22.4945 43.6136 22.6312 44.7612 22.6312C47.799 22.6312 51.1068 21.9475 51.7819 20.4433V20.3749C51.9844 20.1698 51.9844 19.9647 51.9844 19.8279V2.73489C51.9844 2.59815 51.9844 2.39303 51.9169 2.25628ZM50.9043 18.2554V19.8279C50.9043 19.8963 50.8368 20.0331 50.6343 20.2382C49.8242 20.8535 47.7315 21.4689 44.8287 21.4689C43.6136 21.4689 42.4659 21.3321 41.4534 21.127V18.8707C42.5335 19.0759 43.6811 19.2126 44.8287 19.2126C46.3138 19.2126 47.799 19.0075 49.0141 18.734C49.5542 18.5972 50.0267 18.4605 50.3642 18.2554C50.5667 18.187 50.7018 18.0503 50.8368 17.9819V18.2554H50.9043ZM40.1032 9.98235C40.3058 10.1875 40.4408 10.3242 40.4408 10.3242C40.4408 10.3926 40.3733 10.5293 40.1032 10.7344C39.7657 11.0079 39.2257 11.2814 38.4156 11.4865C37.808 11.6233 36.8629 11.8284 35.6478 11.8968C35.5128 11.8968 35.3778 11.8968 35.2428 11.8968C34.9727 11.8968 34.6352 11.8968 34.3652 11.8968C34.0276 11.8968 33.7576 11.8968 33.4876 11.8968C33.2175 11.8968 33.015 11.8968 32.8125 11.8284C32.6775 11.8284 32.5425 11.8284 32.4075 11.8284C32.2049 11.8284 32.0699 11.76 31.8674 11.76C31.7324 11.76 31.6649 11.76 31.5299 11.6917C31.3949 11.6917 31.2599 11.6233 31.1248 11.6233C31.0573 11.6233 30.9223 11.5549 30.8548 11.5549C30.7198 11.5549 30.6523 11.4865 30.5848 11.4865C30.5173 11.4865 30.3823 11.4182 30.3148 11.4182C29.5722 11.213 29.0321 10.9396 28.6946 10.7344L28.6271 10.6661C28.5596 10.5977 28.4921 10.5977 28.4921 10.5293L28.4246 10.461C28.3571 10.3926 28.3571 10.3242 28.3571 10.3242C28.3571 10.2558 28.4246 10.1191 28.6946 9.98235C29.4372 9.43537 31.3949 8.75165 34.5002 8.75165C37.3355 8.68327 39.2932 9.367 40.1032 9.98235ZM39.0231 2.39303C39.7657 1.84605 41.7234 1.16233 44.8287 1.16233C47.934 1.16233 49.8917 1.84605 50.6343 2.39303C50.8368 2.52977 50.9043 2.66652 50.9043 2.73489C50.9043 2.80326 50.8368 2.94001 50.6343 3.07675C50.2967 3.35024 49.7567 3.55536 48.9466 3.82885C48.6091 3.89722 48.204 4.03396 47.664 4.10233C47.2589 4.17071 46.7864 4.23908 46.2463 4.23908C46.0438 4.23908 45.9088 4.23908 45.7063 4.30745C45.1662 4.37582 44.4912 4.37582 43.9511 4.30745C43.7486 4.30745 43.5461 4.30745 43.3436 4.23908C43.2085 4.23908 43.006 4.23908 42.871 4.17071C42.736 4.17071 42.5335 4.10233 42.3985 4.10233C42.2635 4.10233 42.1284 4.10233 41.9934 4.03396C41.8584 4.03396 41.7234 3.96559 41.5884 3.96559C41.4534 3.96559 41.3859 3.89722 41.2508 3.89722C41.1833 3.89722 41.1158 3.82885 41.0483 3.82885C40.9133 3.82885 40.7783 3.76047 40.7108 3.76047C39.9682 3.55536 39.4282 3.28187 39.0906 3.00838C39.0231 2.94001 38.9556 2.87163 38.9556 2.87163L38.8881 2.80326C38.8206 2.73489 38.8206 2.66652 38.8206 2.66652C38.7531 2.66652 38.8206 2.52977 39.0231 2.39303ZM34.2977 19.9647C35.7828 19.9647 37.2679 19.7596 38.4831 19.4861C39.0231 19.3493 39.4282 19.2126 39.8332 19.0075C40.0357 18.9391 40.1707 18.8024 40.3057 18.734V19.0759V20.6484C40.3057 20.8535 39.7657 21.3321 38.3481 21.8107C37.673 22.0159 36.5929 22.221 35.1077 22.2893C34.8377 22.2893 34.5002 22.2893 34.2301 22.2893C33.8926 22.2893 33.6226 22.2893 33.3526 22.2893C32.745 22.2893 32.2049 22.1526 31.5974 22.0842C31.5974 22.0159 31.5974 21.8791 31.5974 21.8107C31.5974 21.127 31.4624 20.4433 31.2599 19.8279C32.2725 19.8279 33.2851 19.9647 34.2977 19.9647ZM39.2256 7.99955C39.5632 8.20467 40.0357 8.34141 40.5758 8.47816C41.7909 8.82002 43.276 8.95676 44.7612 8.95676C46.2463 8.95676 47.7315 8.75165 48.9466 8.47816C49.4866 8.34141 49.9592 8.20467 50.2967 7.99955C50.4992 7.93118 50.6343 7.79443 50.8368 7.72606V8.06792V9.57211C50.8368 9.77723 50.2967 10.2558 48.8791 10.7344C48.204 10.9396 47.1239 11.1447 45.6388 11.213C45.0987 11.2814 44.4236 11.2814 43.8836 11.213C43.006 11.1447 42.1284 11.0763 41.3859 10.8712V10.3242C41.3859 10.1191 41.3858 9.98235 41.3183 9.8456V9.77723C40.9808 9.02514 40.0357 8.47816 38.7531 8.1363V7.65769C38.8881 7.79443 39.0906 7.86281 39.2256 7.99955ZM28.1546 11.8284C28.2896 11.8968 28.3571 11.9651 28.4921 12.0335L28.6946 12.1703C29.0321 12.3754 29.5047 12.5121 30.0447 12.6489C31.2599 12.9907 32.745 13.1275 34.2301 13.1275H34.2977C35.7828 13.1275 37.2679 12.9224 38.4831 12.6489C38.5506 12.6489 38.6181 12.5805 38.6856 12.5805L38.8881 12.5121C39.2256 12.3754 39.5632 12.307 39.8332 12.1703L40.0357 12.0335C40.1707 11.9651 40.2382 11.8968 40.3057 11.8284V12.1703V13.7428C40.3057 13.9479 39.7657 14.4265 38.3481 14.9051C37.673 15.1103 36.5929 15.3154 35.1077 15.3838C34.8377 15.3838 34.5002 15.3838 34.2301 15.3838C33.8926 15.3838 33.6226 15.3838 33.3526 15.3838C31.8674 15.247 30.7873 15.0419 30.1798 14.9051C28.7621 14.4949 28.2221 14.0163 28.2221 13.7428V12.1703V11.8284H28.1546ZM28.6946 15.5889C29.0321 15.794 29.5047 15.9307 30.0447 16.0675C31.2599 16.4093 32.745 16.5461 34.2301 16.5461C35.7828 16.5461 37.2005 16.4093 38.4156 16.0675C38.9556 15.9307 39.4282 15.794 39.7657 15.5889C39.9682 15.5205 40.1032 15.3838 40.3057 15.3154V15.6572V17.2298C40.3057 17.4349 39.7657 17.9135 38.3481 18.3921C37.673 18.5972 36.5929 18.8024 35.1077 18.8707C34.8377 18.8707 34.5002 18.8707 34.2301 18.8707C33.8926 18.8707 33.6226 18.8707 33.3526 18.8707C32.2725 18.8024 31.3949 18.6656 30.7873 18.5289C30.1798 17.4349 29.2347 16.4777 28.1546 15.8624V15.247C28.3571 15.3838 28.4921 15.5205 28.6946 15.5889ZM31.5299 23.1098C32.475 23.2466 33.4201 23.3833 34.2977 23.3833C35.7828 23.3833 37.2679 23.1782 38.4831 22.9047C39.0231 22.768 39.4957 22.6312 39.8332 22.4261C40.0357 22.3577 40.1707 22.221 40.3732 22.1526V22.4945V24.067C40.3732 24.2721 39.7657 24.8191 38.4156 25.2294C37.7405 25.4345 36.6604 25.6396 35.1752 25.708C34.9052 25.708 34.5677 25.708 34.2977 25.708C33.9601 25.708 33.6901 25.708 33.4201 25.708C32.205 25.6396 31.3274 25.5028 30.6523 25.3661C31.0573 24.614 31.3274 23.8619 31.5299 23.1098ZM50.9043 14.8368V16.4093C50.9043 16.6145 50.2967 17.1614 48.9466 17.5717C48.2715 17.7768 47.1914 17.9819 45.7063 18.0503C45.1662 18.1186 44.4912 18.1186 43.9511 18.0503C43.0735 17.9819 42.1959 17.9135 41.4534 17.7084V15.4521C42.5335 15.6572 43.6811 15.794 44.8287 15.794C46.3138 15.794 47.799 15.5889 49.0141 15.3154C49.5542 15.1786 50.0267 15.0419 50.3642 14.8368C50.5667 14.7684 50.7018 14.6317 50.9043 14.5633V14.8368ZM50.9043 11.4182V12.9907C50.9043 13.1958 50.3642 13.6744 48.9466 14.1531C48.2715 14.3582 47.1914 14.5633 45.7063 14.6317C45.1662 14.7 44.4912 14.7 43.9511 14.6317C43.0735 14.5633 42.2634 14.4949 41.4534 14.2898V12.0335C42.5335 12.2386 43.6811 12.3754 44.8287 12.3754C46.3138 12.3754 47.799 12.1703 49.0141 11.8968C49.5542 11.76 50.0267 11.6233 50.3642 11.4182C50.5667 11.3498 50.7018 11.213 50.8368 11.1447V11.4182H50.9043ZM50.9043 4.58094V6.1535C50.9043 6.35862 50.3642 6.83722 48.9466 7.31583C48.2715 7.52095 47.1914 7.72606 45.7063 7.79444C45.1662 7.86281 44.4912 7.86281 43.9511 7.79444C42.466 7.72606 41.3859 7.52095 40.7108 7.31583C39.2932 6.90559 38.7531 6.42699 38.7531 6.1535V4.58094V4.23908C38.8206 4.30745 38.9556 4.37582 39.0231 4.4442L39.2256 4.58094C39.6307 4.78606 40.0357 4.9228 40.5758 5.05954C41.7909 5.40141 43.276 5.53815 44.7612 5.53815H44.8287C46.3138 5.53815 47.7315 5.33303 48.9466 5.05954C49.0816 5.05954 49.1491 4.99117 49.2166 4.99117H49.3516C49.4191 4.99117 49.4191 4.99117 49.4867 4.9228C49.8242 4.85443 50.0942 4.71768 50.3642 4.58094L50.5668 4.4442C50.7018 4.37582 50.7693 4.30745 50.8368 4.23908V4.58094H50.9043ZM30.5173 21.674C30.5173 24.7507 28.0195 27.2121 25.0492 27.2121C22.0114 27.2121 19.5812 24.6824 19.5812 21.674C19.5812 18.6656 22.0115 16.1358 24.9817 16.1358C28.0195 16.1358 30.5173 18.5972 30.5173 21.674Z" fill="#1D1D1B"/>
<path d="M25.3879 21.1314C24.7803 20.8579 24.4428 20.7212 24.4428 20.311C24.4428 19.9007 24.9153 19.8324 25.1178 19.8324C25.5229 19.8324 25.7929 19.9691 25.9954 20.2426L26.0629 20.311L26.738 19.4221L26.6705 19.3537C26.4004 19.0803 26.0629 18.8751 25.5904 18.8068V18.123H24.4428V18.8068C23.7002 19.0119 23.1602 19.6272 23.1602 20.3793C23.1602 21.4733 24.0377 21.8835 24.7128 22.157C25.1853 22.3621 25.6579 22.5672 25.6579 22.9775C25.6579 23.4561 25.2528 23.5245 25.0503 23.5245C24.7128 23.5245 24.2403 23.3877 23.9027 22.9775L23.8352 22.8407L23.1602 23.6612V23.7296C23.3627 24.2082 23.9702 24.4817 24.5103 24.6184V25.3021H25.6579V24.55C26.4679 24.3449 26.9405 23.7296 26.9405 22.9091C26.873 21.8151 26.0629 21.4733 25.3879 21.1314Z" fill="#1D1D1B"/>
</svg>
