<svg width="62" height="60" viewBox="0 0 62 60" fill="none" xmlns="http://www.w3.org/2000/svg">
<path d="M13.482 24.8319L43.8363 25.0608C44.7401 25.0608 45.644 25.2896 46.3972 25.7474C46.9244 25.6711 47.3763 25.5948 47.9036 25.5948C53.402 25.5185 58.0719 29.8668 58.3732 35.3595L59.3523 34.2915C61.16 32.3843 61.0847 29.4091 59.2017 27.5782L32.3875 1.33561C30.5045 -0.495268 27.567 -0.418981 25.7593 1.4119L11.0717 16.8218C9.26401 18.6527 9.33934 21.7042 11.2224 23.535L13.482 24.8319ZM25.9852 6.37054L28.0189 4.3108C28.9981 3.31907 30.6551 3.31907 31.6343 4.3108L36.3795 9.11686C37.3587 10.1086 37.3587 11.7869 36.3795 12.7786L34.3458 14.8384C33.3667 15.8301 31.7096 15.8301 30.7304 14.8384L25.9852 10.0323C25.0061 9.04057 25.0061 7.36226 25.9852 6.37054Z" fill="#1D1D1B"/>
<path d="M5.19714 57.7185C3.16348 57.7185 1.50642 55.9639 1.50642 53.8279V38.8757H37.9617V36.6634C37.9617 35.5191 38.1123 34.5273 38.4889 33.5356H1.58174V32.3913C1.58174 30.2553 3.2388 28.5007 5.27246 28.5007H42.029C42.1796 28.3481 42.4056 28.1193 42.5562 27.9667C42.7822 27.7378 43.0082 27.509 43.2341 27.2801C43.2341 27.2801 43.3094 27.2801 43.3094 27.2038C43.3848 27.1275 43.3848 27.1275 43.4601 27.0512C43.5354 26.975 43.6107 26.975 43.6107 26.975C43.2341 26.8987 42.8575 26.7461 42.4056 26.7461H5.27246C2.41027 26.7461 0 29.2636 0 32.315V53.6753C0 56.7268 2.33495 59.2442 5.27246 59.2442H34.9488C34.6476 58.7102 34.3463 58.1762 34.1203 57.5659H5.19714V57.7185Z" fill="#1D1D1B"/>
<path d="M34.0425 44.5957H4.44141V49.1729H34.0425V44.5957Z" fill="#1D1D1B"/>
<path d="M57.6215 41.923V36.6592C57.6215 31.3192 53.5542 26.8945 48.4324 26.8945C44.4404 26.8945 41.0509 29.6409 39.7705 33.4552C39.4692 34.4469 39.2432 35.5149 39.2432 36.5829V41.8467C37.2096 42.457 35.7031 44.2879 35.7031 46.5765V54.968C35.7031 57.7144 37.8874 59.9267 40.599 59.9267H56.2657C58.9773 59.9267 61.1616 57.7144 61.1616 54.968V46.5765C61.1616 44.3642 59.6552 42.457 57.6215 41.923ZM48.5077 29.4883C52.2737 29.4883 55.2866 32.6923 55.2866 36.6592V41.6942H41.7288V36.6592C41.7288 32.6923 44.7416 29.4883 48.5077 29.4883ZM50.0141 52.3743V54.2052C50.0141 54.8918 49.4869 55.4258 48.809 55.4258H48.2064C47.5285 55.4258 47.0013 54.8918 47.0013 54.2052V52.3743C46.2481 51.764 45.7208 50.7723 45.7208 49.5517C45.7208 47.7208 47.0013 46.1951 48.5077 46.1951C50.0894 46.1951 51.2946 47.7208 51.2946 49.5517C51.2946 50.7723 50.7673 51.764 50.0141 52.3743Z" fill="#24638E"/>
</svg>
