<svg width="80" height="62" viewBox="0 0 80 62" fill="none" xmlns="http://www.w3.org/2000/svg">
<path d="M69.4891 4.59017C66.9712 6.56454 64.1284 9.7729 63.2349 14.5443C62.2602 19.9738 60.5545 23.758 58.1178 26.226C55.5999 28.7762 51.0513 29.5989 47.4775 28.1181C47.1526 28.0358 46.9089 27.8713 46.6653 27.7068C43.9037 26.226 41.9543 22.9354 40.9797 18.8221C40.4111 16.3541 41.0609 12.2409 44.4723 8.86798C46.7465 6.72907 51.3762 3.76751 59.9859 3.76751C62.7475 3.60298 65.9153 3.93205 69.4891 4.59017Z" fill="#78E5B4"/>
<path d="M33.0269 32.7282C33.0269 35.0316 32.4583 37.006 31.3212 38.3222C31.24 38.4867 31.0775 38.6513 30.9151 38.8158C28.8845 40.7079 25.6356 41.366 23.2801 40.3789C21.0058 39.3917 18.8128 37.1705 16.701 33.5508C14.9953 30.7538 12.3962 29.1907 10.2031 28.3681C19.4626 22.774 25.2295 23.7612 27.9911 24.9129C31.1588 26.3114 32.6208 28.9439 32.9457 30.7538C33.0269 31.3296 33.0269 32.07 33.0269 32.7282Z" fill="#78E5B4"/>
<path d="M74.6913 2.04156C55.0351 -2.97664 45.7756 2.37062 42.0393 6.15484C37.4908 10.5149 36.7598 15.9444 37.4908 19.5641C38.4655 24.0887 40.8209 27.7907 43.8262 29.9296C43.014 34.2896 42.5267 39.2256 42.2018 43.997C39.8463 38.4029 37.0035 35.935 36.4349 35.4414C36.7598 33.7961 36.841 31.9862 36.5161 30.1764C36.0287 27.3793 33.9981 23.5951 29.3684 21.6208C24.8198 19.6464 16.6975 19.0705 4.5139 27.7084L0.208984 30.8345L5.56979 30.999C5.65101 30.999 11.1742 31.2458 13.6109 35.4414C16.1289 39.6369 18.8093 42.3517 21.8958 43.6679C23.1142 44.2438 24.4137 44.4083 25.7945 44.4083C28.5561 44.4083 31.399 43.3389 33.3483 41.3645C33.6732 41.0354 33.9169 40.7886 34.1606 40.5418C34.4855 40.1305 34.8104 39.6369 35.054 39.1433C37.0034 41.2822 41.4707 47.5344 41.7956 60.2033C41.7956 60.9437 41.7956 61.4373 41.7956 61.5195H45.3695C45.3695 61.1082 45.3695 60.6969 45.3695 60.2856C45.3695 56.1723 45.4507 41.9403 47.2376 31.6572C48.6184 32.1507 49.9993 32.3975 51.4613 32.3975C54.9539 32.3975 58.3653 31.1636 60.802 28.7779C63.8073 25.734 65.7566 21.2917 66.8938 15.0395C68.1121 8.45827 74.9349 5.49671 75.0162 5.41445L79.9708 3.27554L74.6913 2.04156ZM30.9117 38.732C28.8811 40.6241 25.6321 41.2822 23.2766 40.295C21.0023 39.3078 18.8093 37.0867 16.6975 33.467C14.9918 30.67 12.3926 29.1069 10.1995 28.2843C19.4591 22.6902 25.226 23.6774 27.9876 24.8291C31.1553 26.2276 32.6174 28.8601 32.9423 30.67C33.0235 31.3281 33.0234 31.9862 33.0234 32.6443C33.0234 32.8089 32.9423 32.8911 32.9423 33.0557C29.0435 29.1069 22.2207 28.3665 21.8146 28.3665L21.4897 31.9862C21.5709 31.9862 29.9369 32.9734 31.5614 37.6625C31.399 37.8271 31.3989 38.0739 31.2365 38.2384C31.2365 38.4852 31.0741 38.6497 30.9117 38.732ZM63.2387 14.4637C62.264 19.8932 60.5584 23.6774 58.1216 26.1454C55.6037 28.6956 51.0551 29.5182 47.4813 28.0375C47.2376 27.9552 46.994 27.7907 46.7503 27.7084C46.7503 26.7212 47.3189 18.6592 53.8168 16.0267L52.5172 12.5715C46.2629 15.0395 44.2324 20.9626 43.5826 24.5823C42.4454 22.937 41.552 20.9626 40.9834 18.6592C40.4148 16.1912 41.0646 12.078 44.476 8.70507C46.7503 6.56616 51.38 3.60461 59.9898 3.60461C62.7514 3.60461 65.8378 3.93367 69.4117 4.59179C66.975 6.56616 64.051 9.77452 63.2387 14.4637Z" fill="#1D1D1B"/>
</svg>
