<svg width="122" height="80" viewBox="0 0 122 80" fill="none" xmlns="http://www.w3.org/2000/svg">
<path d="M40.9851 66.9688H0.421875V79.267H40.9851V66.9688Z" fill="#ED362B"/>
<path d="M81.5436 66.9688H40.9805V79.267H81.5436V66.9688Z" fill="#FFBE00"/>
<path d="M121.983 66.9688H81.4199V79.267H121.983V66.9688Z" fill="#ED362B"/>
<path d="M14.4743 34.6262C11.4254 33.2894 9.56956 32.22 9.56956 30.0812C9.56956 28.4771 10.7626 27.5413 12.751 27.5413C14.8719 27.5413 16.065 28.3434 17.258 29.5465L17.9208 30.2149L21.4999 25.0015L21.1022 24.4668C19.1138 22.328 15.9324 20.9912 12.3533 20.9912C6.78581 20.9912 2.80903 24.8678 2.80903 30.0812C2.80903 36.0966 7.31605 38.2354 10.8952 39.9732C13.8115 41.4437 15.6673 42.3794 15.6673 44.3846C15.6673 46.3897 13.944 47.1918 12.2207 47.1918C10.4975 47.1918 7.97885 46.3897 6.25557 44.1172L5.72534 43.4488L2.01367 48.1275L2.27879 48.5285C3.73694 52.0041 8.37652 53.8756 12.2207 53.8756C18.1859 53.8756 22.4278 49.999 22.4278 44.5182C22.4278 38.3691 17.9208 36.2303 14.4743 34.6262Z" fill="black"/>
<path d="M35.5553 21.3828C34.4948 21.3828 32.7716 21.3828 31.0483 21.3828C29.5901 21.3828 28.132 21.3828 27.4692 21.3828H26.6738V53.1978H33.1692V42.5037C34.2297 42.6373 35.4228 42.6373 36.0855 42.6373C43.774 42.6373 47.2205 37.1566 47.2205 32.0769C47.2205 28.735 46.1601 21.3828 35.5553 21.3828ZM40.46 31.8096C40.46 35.5525 37.2786 35.9535 35.953 35.9535C35.1576 35.9535 34.2297 35.9535 33.1692 35.8198V27.9329C34.2297 27.9329 35.1576 27.9329 35.953 27.9329C40.0623 27.9329 40.46 30.2054 40.46 31.8096Z" fill="black"/>
<path d="M57.5599 21.3828L44.9668 53.3314H51.5948L54.5111 45.5782H65.6461L68.5624 53.3314H75.4555L62.9949 21.3828H57.5599ZM63.1274 39.0281H57.0297L60.0786 31.1412L63.1274 39.0281Z" fill="black"/>
<path d="M85.6634 21.5137H79.168V53.3286H85.6634V21.5137Z" fill="black"/>
<path d="M111.111 21.3828V41.0332L96.5294 21.3828H91.4922V53.3314H97.5899V33.8147L112.171 53.3314H117.209V21.3828H111.111Z" fill="black"/>
<path d="M121.982 58.0137H0.822266V60.2862H121.982V58.0137Z" fill="#1D1D1B"/>
<path d="M4.26562 0.130859H7.57961L13.9425 7.88409L20.0402 0.130859H23.0891V16.8404H19.9076V4.80953L13.9425 12.1617H13.5448L7.57961 4.80953V16.8404H4.26562V0.130859Z" fill="black"/>
<path d="M34.6274 0H37.5437L45.4973 16.7095H41.9182L39.9298 12.4319H31.9762L29.9878 16.7095H26.6738L34.6274 0ZM33.1692 9.75837H38.6042L35.953 3.87661L33.1692 9.75837Z" fill="black"/>
<path d="M48.9414 0.133676H49.3391C50.3996 0.133676 53.0508 0 54.5089 0C61.9322 0 64.9811 3.87661 64.9811 8.28793C64.9811 12.9666 61.402 16.8432 54.2438 16.8432C53.1833 16.8432 51.0624 16.8432 49.3391 16.8432H48.9414V0.133676ZM52.2554 2.8072V14.036C53.1833 14.036 53.8461 14.036 54.3764 14.036C58.8834 14.036 61.5346 11.7635 61.5346 8.28793C61.5346 4.94602 58.8834 2.8072 54.5089 2.8072C53.581 2.67352 53.0508 2.8072 52.2554 2.8072Z" fill="black"/>
<path d="M69.4844 0.130859H80.2217V2.93806H72.7984V7.08202H79.5589V9.75555H72.7984V14.0332H80.6194V16.7067H69.4844V0.130859Z" fill="black"/>
<path d="M92.5527 0.130859H95.8667V16.8404H92.5527V0.130859Z" fill="black"/>
<path d="M115.479 16.7067L105.272 5.21056V16.7067H102.223V0.130859H104.874L115.081 11.7607V0.130859H118.13V16.8404H115.479V16.7067Z" fill="black"/>
</svg>
