<svg width="67" height="62" viewBox="0 0 67 62" fill="none" xmlns="http://www.w3.org/2000/svg">
<path d="M10.8654 36.5409V43.5084L9.81241 41.3755L8.54883 42.513V35.0479L10.8654 36.5409Z" fill="#1D1D1B"/>
<path d="M27.3568 23.744L12.9665 32.7022L10.4395 31.6357L25.3211 22.6064L27.3568 23.744Z" fill="#1D1D1B"/>
<path d="M20.4824 61.9949L39.5759 50.6906V29.0771L20.4824 38.8885V61.9949ZM22.3777 40.0971L37.6806 32.2054V49.553L22.3777 58.6534V40.0971Z" fill="#1D1D1B"/>
<path d="M39.0129 28.301L19.4982 17.5654L0.685547 28.301L19.8492 38.2546L39.0129 28.301ZM19.8492 36.1217L14.6547 33.42L28.9046 24.9595L34.8713 28.2299L19.8492 36.1217ZM26.0968 23.3954L26.9391 23.893L12.619 32.4246L10.8641 31.5004L25.3948 23.111L26.0968 23.3954ZM19.4982 19.6983L23.5697 21.9023L8.96874 30.3628L4.68676 28.1588L19.4982 19.6983Z" fill="#1D1D1B"/>
<path d="M6.65042 32.1335L0.753906 29.1475V50.6898L19.8474 61.9941V38.9588L7.98414 32.8445L6.65042 32.1335ZM12.7575 37.3947L17.9521 40.0964V58.6526L2.64922 49.5522V32.2757L6.65042 34.3375V45.713L9.24768 43.5801L12.7575 49.6944V37.3947ZM8.54573 35.3329L10.8622 36.5415V42.4425L9.87945 40.6651L8.61591 41.6605V35.3329H8.54573Z" fill="#1D1D1B"/>
<path d="M27.4277 44.1481C28.0595 43.7926 31.0779 42.1574 33.605 40.8065V38.6025C30.6568 40.1667 28.6211 41.3042 27.4277 41.9441V44.1481Z" fill="#1D1D1B"/>
<path d="M27.4277 47.9244C28.0595 47.569 31.0779 45.9337 33.605 44.5829V42.3789C30.6568 43.943 28.6211 45.0806 27.4277 45.7204V47.9244Z" fill="#1D1D1B"/>
<path d="M27.4277 51.6872C28.0595 51.3317 31.0779 49.6964 33.605 48.3456V46.1416C30.6568 47.7057 28.6211 48.8433 27.4277 49.4832V51.6872Z" fill="#1D1D1B"/>
<path d="M63.5139 15.0725C60.2146 10.8067 54.8797 8.24722 49.1235 8.17612H42.0337V0L22.2383 14.8592L42.0337 27.4433V18.9117L48.7725 19.125C53.4757 19.2672 57.6173 22.4666 58.8106 26.8746C58.8808 27.1589 58.9511 27.3722 58.9511 27.3722C59.9338 37.5391 45.5435 44.7198 45.4031 44.7909L39.9278 47.4926L45.9647 46.6394C58.6703 44.7909 66.1111 37.3969 66.8833 25.8792C67.0938 21.8978 65.9707 18.3429 63.5139 15.0725ZM51.1593 43.369C55.6518 40.0274 61.4782 34.3397 60.7762 27.0878C60.7762 27.0878 60.7762 26.8035 60.6358 26.3769C59.1616 21.1157 54.3181 17.3476 48.8428 17.2054L40.1384 16.9921V24.0307L25.6077 14.717L40.1384 3.83922V10.0957L49.1235 10.1668C54.3181 10.2379 59.1617 12.513 62.0397 16.2811C64.2158 19.125 65.1986 22.2533 64.988 25.5948C64.286 34.553 59.5828 40.5251 51.1593 43.369Z" fill="#24638E"/>
<path d="M64.9135 25.6587C64.2817 34.5458 59.5786 40.589 51.155 43.3618C55.6476 40.0203 61.4739 34.3325 60.7719 27.0807C60.7719 27.0807 60.7719 26.7963 60.6315 26.3697C59.1574 21.1085 54.3138 17.3404 48.8385 17.1982L40.1342 16.9849V24.0235L25.6035 14.7098L40.1342 3.83203V10.0885L49.1193 10.1596C54.3138 10.2307 59.1574 12.5058 62.0355 16.274C64.1413 19.1178 65.1241 22.2461 64.9135 25.6587Z" fill="#24638E"/>
</svg>
