<svg width="80" height="51" viewBox="0 0 80 51" fill="none" xmlns="http://www.w3.org/2000/svg">
<path d="M50.2044 0H6.5145C4.35902 0 2.53516 1.84726 2.53516 4.03038V17.9688H4.52483V4.03038C4.52483 2.93882 5.43676 2.01519 6.5145 2.01519H50.2873C51.3651 2.01519 52.277 2.93882 52.277 4.03038V33.9224C52.277 35.0139 51.3651 35.9375 50.2873 35.9375H37.6861V37.9527H50.2044C52.3599 37.9527 54.1838 36.1055 54.1838 33.9224V4.03038C54.1838 1.84726 52.4428 0 50.2044 0Z" fill="#24638E"/>
<path d="M56.0091 41.6481C56.0091 41.732 56.0091 41.816 56.092 41.816H37.6875V39.8848H56.3407C56.1749 40.3886 56.0091 40.9763 56.0091 41.6481Z" fill="#24638E"/>
<path d="M79.0559 24.1009V37.5355C79.0559 39.8866 77.2321 41.8178 74.9108 41.8178H65.0453C65.1282 41.7338 65.1282 41.6499 65.1282 41.6499C65.1282 41.0621 64.9624 40.3904 64.7137 39.8866H74.9108C76.0714 39.8866 77.1492 38.879 77.1492 37.6195V24.1849C77.1492 23.5971 76.9834 23.0933 76.5688 22.6735C76.5688 22.5895 76.4859 22.5895 76.4859 22.5895L68.7759 14.6967L64.2992 10.1625C63.8847 9.74269 63.3043 9.49079 62.724 9.49079H52.1953V7.55957H62.724C63.8847 7.55957 64.9624 7.9794 65.7085 8.81906L69.605 12.7655L77.8953 21.1621C77.9782 21.2461 77.9782 21.2461 77.9782 21.2461C78.7243 22.0018 79.0559 23.0094 79.0559 24.1009Z" fill="#24638E"/>
<path d="M69.6024 12.6758H60.2344V24.0112C60.2344 26.7821 62.3899 28.9652 65.1257 28.9652H79.1363L77.8098 22.8357L69.6024 12.6758ZM77.1466 26.9501H65.2915C63.5505 26.9501 62.2241 25.5226 62.2241 23.8433V14.691H68.7734L77.1466 23.1716V26.9501Z" fill="#24638E"/>
<path d="M66.7827 39.8827C66.0366 37.1118 63.4666 35.0127 60.565 35.0127C57.4976 35.0127 55.0105 37.1118 54.1814 39.8827C54.0985 40.3865 54.0156 41.0583 54.0156 41.646V41.8979C54.0985 45.4245 57.0001 48.2794 60.565 48.2794C64.0469 48.2794 66.8656 45.4245 67.0314 41.8979V41.646C67.0314 41.0583 66.9485 40.3865 66.7827 39.8827ZM65.0417 41.8979C64.9588 44.3329 62.9692 46.2642 60.565 46.2642C58.0779 46.2642 56.0882 44.3329 56.0053 41.8979C55.9224 41.814 55.9224 41.73 55.9224 41.646C55.9224 41.0583 56.0882 40.3865 56.3369 39.8827C57.0001 38.2034 58.6582 37.0279 60.565 37.0279C62.3888 37.0279 64.0469 38.2034 64.7101 39.8827C64.9588 40.3865 65.1246 41.0583 65.1246 41.646C65.1246 41.73 65.1246 41.814 65.0417 41.8979Z" fill="#24638E"/>
<path d="M65.128 41.6494C65.128 41.7334 65.128 41.8173 65.0451 41.9013C64.9622 44.3363 62.9725 46.2675 60.5684 46.2675C58.0813 46.2675 56.0916 44.3363 56.0087 41.9013C55.9258 41.8173 55.9258 41.7334 55.9258 41.6494C55.9258 41.0616 56.0916 40.3899 56.3403 39.8861C57.0035 38.2068 58.6616 37.0312 60.5684 37.0312C62.3922 37.0312 64.0503 38.2068 64.7135 39.8861C64.9622 40.3899 65.128 41.0616 65.128 41.6494Z" fill="#24638E"/>
<path d="M78.1358 35.0127H70.4258V37.0279H78.1358V35.0127Z" fill="#24638E"/>
<path d="M61.2242 12.6758H56.9961V14.691H61.2242V12.6758Z" fill="#24638E"/>
<path d="M33.2897 20.7348L33.87 20.1471C34.6161 19.3914 34.6161 18.2158 33.87 17.4601L32.6265 16.2846C31.8803 15.5289 30.7197 15.5289 29.9736 16.2846L29.3932 16.8724C27.4865 15.5289 25.4139 14.5213 23.1755 13.9336C23.4242 13.5977 23.5071 13.2618 23.5071 12.842V11.0787C23.5071 10.0711 22.6781 9.23145 21.6833 9.23145H15.9629C14.9681 9.23145 14.1391 10.0711 14.1391 11.0787V12.926C14.1391 13.3458 14.222 13.6817 14.4707 14.0175C6.51199 15.8648 0.542969 23.3378 0.542969 31.8184C0.542969 32.4061 0.542969 32.9939 0.625872 33.4977L0.708775 34.5053H4.68812L4.52232 33.3297C4.52232 32.826 4.43941 32.3222 4.43941 31.8184C4.43941 24.3454 9.99392 18.1319 17.2065 17.3762H20.3568C23.0097 17.712 25.4139 18.8036 27.4865 20.315L29.8078 22.5821C31.8803 25.185 33.041 28.4597 33.041 31.7344C33.041 39.7112 26.6574 46.2605 18.6987 46.2605C18.5329 46.2605 18.3671 46.2605 18.2013 46.2605L16.7091 46.1766V50.123L18.0355 50.207C18.2842 50.207 18.5329 50.2909 18.6987 50.2909C28.73 50.2909 36.9374 41.9783 36.9374 31.8184C37.0203 27.8719 35.6939 23.9255 33.2897 20.7348Z" fill="#F8AA24"/>
<path d="M25.999 27.0273L23.0974 24.2564L19.3668 28.3707C19.0351 28.2868 18.7035 28.2868 18.3719 28.3707L12.5687 22.1572L9.75 24.8441L15.4703 31.1416C15.4703 31.3095 15.3874 31.5614 15.3874 31.8133C15.3874 33.7446 16.9626 35.256 18.7864 35.256C20.6932 35.256 22.1855 33.6606 22.1855 31.8133C22.1855 31.5614 22.1855 31.3095 22.1026 31.0576L25.999 27.0273Z" fill="#F8AA24"/>
<path d="M3.52874 36.5215C2.451 36.5215 1.53906 37.4451 1.53906 38.5367C1.53906 39.6282 2.451 40.5519 3.52874 40.5519C4.60648 40.5519 5.51841 39.6282 5.51841 38.5367C5.51841 37.4451 4.60648 36.5215 3.52874 36.5215Z" fill="#F8AA24"/>
<path d="M6.59514 42.2305C5.5174 42.2305 4.60547 43.1541 4.60547 44.2457C4.60547 45.3372 5.5174 46.2608 6.59514 46.2608C7.67288 46.2608 8.58482 45.3372 8.58482 44.2457C8.58482 43.1541 7.67288 42.2305 6.59514 42.2305Z" fill="#F8AA24"/>
<path d="M12.2319 45.6729C11.1541 45.6729 10.2422 46.5965 10.2422 47.688C10.2422 48.7796 11.1541 49.7032 12.2319 49.7032C13.3096 49.7032 14.2215 48.7796 14.2215 47.688C14.2215 46.5965 13.3096 45.6729 12.2319 45.6729Z" fill="#F8AA24"/>
</svg>
