<svg width="121" height="81" viewBox="0 0 121 81" fill="none" xmlns="http://www.w3.org/2000/svg">
<path d="M10.8738 21.9355H4.2168V52.2282H10.8738V21.9355Z" fill="#1D1D1B"/>
<path d="M40.963 21.9307H14.7344V27.9892H24.4536V52.2233H31.1106V27.9892H40.963V21.9307Z" fill="#1D1D1B"/>
<path d="M50.4136 21.7998L37.0996 52.2271H44.0229L47.2183 44.8222H59.0677L62.13 52.2271H69.3195L56.0055 21.7998H50.4136ZM56.4049 38.6291H49.7479L53.0764 30.9549L56.4049 38.6291Z" fill="#1D1D1B"/>
<path d="M78.7726 21.9307H71.9824V52.2233H92.2197V46.0301H78.7726V21.9307Z" fill="#1D1D1B"/>
<path d="M108.467 21.9307L101.544 33.3746L94.4878 21.9307H86.7656L97.9494 39.7024V52.2233H104.606V39.7024L115.923 21.9307H108.467Z" fill="#1D1D1B"/>
<path d="M40.4329 68.1318H0.224609V80.3835H40.4329V68.1318Z" fill="#009500"/>
<path d="M80.6361 68.1318H40.4277V80.3835H80.6361V68.1318Z" fill="#EDEDED"/>
<path d="M120.851 68.1318H80.6426V80.3835H120.851V68.1318Z" fill="#ED362B"/>
<path d="M120.71 60.0586H0.484375V62.3474H120.71V60.0586Z" fill="#1D1D1B"/>
<path d="M3.68359 0.135742H6.87896L13.1365 7.94452L19.1279 0.135742H22.1901V16.6957H19.1279V4.7133L13.2697 11.9835H12.8703L6.87896 4.7133V16.6957H3.68359V0.135742Z" fill="black"/>
<path d="M33.7732 0H36.5692L44.4245 16.6946H40.9628L39.0989 12.3863H31.1104L29.2465 16.6946H25.918L33.7732 0ZM32.3087 9.69365H37.7675L35.1046 3.76975L32.3087 9.69365Z" fill="black"/>
<path d="M48.0195 0.134634H48.419C49.4841 0.134634 52.1469 0 53.4783 0C60.9341 0 63.8632 3.76975 63.8632 8.21267C63.8632 12.9249 60.2684 16.6946 53.212 16.6946C52.1469 16.6946 50.0166 16.6946 48.2858 16.6946H48.0195V0.134634ZM51.2149 2.82731V14.0019C52.1469 14.0019 52.8126 14.0019 53.3451 14.0019C57.8719 14.0019 60.4016 11.7132 60.4016 8.21267C60.4016 4.84682 57.8719 2.69268 53.4783 2.69268C52.6794 2.69268 52.0137 2.69268 51.2149 2.82731Z" fill="black"/>
<path d="M68.3945 0.130859H79.0458V2.82354H71.723V6.9972H78.38V9.68988H71.723V13.9982H79.4452V16.6908H68.3945V0.130859Z" fill="black"/>
<path d="M91.291 0.130859H94.4863V16.6908H91.291V0.130859Z" fill="black"/>
<path d="M114.054 16.6908L103.802 5.11232V16.5562H100.873V0.130859H103.403L113.521 11.7094V0.130859H116.584V16.6908H114.054Z" fill="black"/>
</svg>
