<svg width="170" height="52" viewBox="0 0 170 52" fill="none" xmlns="http://www.w3.org/2000/svg">
<g filter="url(#filter0_d_0_5530)">
<path d="M45.4275 20.9199H43.7494V20.8334H24.9994V29.1667H36.7733C35.0556 34.0178 30.44 37.5001 24.9994 37.5001C18.0962 37.5001 12.4993 31.9032 12.4993 25.0001C12.4993 18.097 18.0962 12.5001 24.9994 12.5001C28.1858 12.5001 31.0848 13.7022 33.2921 15.6657L39.1848 9.773C35.4639 6.30529 30.4869 4.16675 24.9994 4.16675C13.4941 4.16675 4.16602 13.4949 4.16602 25.0001C4.16602 36.5053 13.4941 45.8334 24.9994 45.8334C36.5046 45.8334 45.8327 36.5053 45.8327 25.0001C45.8327 23.6032 45.6889 22.2397 45.4275 20.9199Z" fill="#FFC107"/>
<path d="M6.56836 15.3032L13.4132 20.323C15.2652 15.7376 19.7507 12.5001 24.9996 12.5001C28.1861 12.5001 31.085 13.7022 33.2923 15.6657L39.185 9.773C35.4642 6.30529 30.4871 4.16675 24.9996 4.16675C16.9975 4.16675 10.0579 8.68446 6.56836 15.3032Z" fill="#FF3D00"/>
<path d="M25 45.8333C30.3813 45.8333 35.2708 43.7739 38.9677 40.425L32.5198 34.9687C30.3579 36.6129 27.7161 37.5021 25 37.5C19.5813 37.5 14.9802 34.0448 13.2469 29.2229L6.45312 34.4573C9.90104 41.2042 16.9031 45.8333 25 45.8333Z" fill="#4CAF50"/>
<path d="M45.4281 20.9197H43.75V20.8333H25V29.1666H36.774C35.9523 31.4754 34.4722 33.4928 32.5167 34.9697L32.5198 34.9676L38.9677 40.4239C38.5115 40.8385 45.8333 35.4166 45.8333 24.9999C45.8333 23.603 45.6896 22.2395 45.4281 20.9197Z" fill="#1976D2"/>
</g>
<path d="M62.672 13.668H64.448V17.076C63.992 17.42 63.464 17.684 62.864 17.868C62.264 18.052 61.66 18.144 61.052 18.144C60.18 18.144 59.396 17.96 58.7 17.592C58.004 17.216 57.456 16.7 57.056 16.044C56.664 15.38 56.468 14.632 56.468 13.8C56.468 12.968 56.664 12.224 57.056 11.568C57.456 10.904 58.008 10.388 58.712 10.02C59.416 9.644 60.208 9.456 61.088 9.456C61.824 9.456 62.492 9.58 63.092 9.828C63.692 10.076 64.196 10.436 64.604 10.908L63.356 12.06C62.756 11.428 62.032 11.112 61.184 11.112C60.648 11.112 60.172 11.224 59.756 11.448C59.34 11.672 59.016 11.988 58.784 12.396C58.552 12.804 58.436 13.272 58.436 13.8C58.436 14.32 58.552 14.784 58.784 15.192C59.016 15.6 59.336 15.92 59.744 16.152C60.16 16.376 60.632 16.488 61.16 16.488C61.72 16.488 62.224 16.368 62.672 16.128V13.668ZM69.7938 18.096C69.1138 18.096 68.5018 17.956 67.9578 17.676C67.4218 17.388 67.0018 16.992 66.6978 16.488C66.3938 15.984 66.2418 15.412 66.2418 14.772C66.2418 14.132 66.3938 13.56 66.6978 13.056C67.0018 12.552 67.4218 12.16 67.9578 11.88C68.5018 11.592 69.1138 11.448 69.7938 11.448C70.4738 11.448 71.0818 11.592 71.6178 11.88C72.1538 12.16 72.5738 12.552 72.8778 13.056C73.1818 13.56 73.3338 14.132 73.3338 14.772C73.3338 15.412 73.1818 15.984 72.8778 16.488C72.5738 16.992 72.1538 17.388 71.6178 17.676C71.0818 17.956 70.4738 18.096 69.7938 18.096ZM69.7938 16.56C70.2738 16.56 70.6658 16.4 70.9698 16.08C71.2818 15.752 71.4378 15.316 71.4378 14.772C71.4378 14.228 71.2818 13.796 70.9698 13.476C70.6658 13.148 70.2738 12.984 69.7938 12.984C69.3138 12.984 68.9178 13.148 68.6058 13.476C68.2938 13.796 68.1378 14.228 68.1378 14.772C68.1378 15.316 68.2938 15.752 68.6058 16.08C68.9178 16.4 69.3138 16.56 69.7938 16.56ZM78.2571 18.096C77.5771 18.096 76.9651 17.956 76.4211 17.676C75.8851 17.388 75.4651 16.992 75.1611 16.488C74.8571 15.984 74.7051 15.412 74.7051 14.772C74.7051 14.132 74.8571 13.56 75.1611 13.056C75.4651 12.552 75.8851 12.16 76.4211 11.88C76.9651 11.592 77.5771 11.448 78.2571 11.448C78.9371 11.448 79.5451 11.592 80.0811 11.88C80.6171 12.16 81.0371 12.552 81.3411 13.056C81.6451 13.56 81.7971 14.132 81.7971 14.772C81.7971 15.412 81.6451 15.984 81.3411 16.488C81.0371 16.992 80.6171 17.388 80.0811 17.676C79.5451 17.956 78.9371 18.096 78.2571 18.096ZM78.2571 16.56C78.7371 16.56 79.1291 16.4 79.4331 16.08C79.7451 15.752 79.9011 15.316 79.9011 14.772C79.9011 14.228 79.7451 13.796 79.4331 13.476C79.1291 13.148 78.7371 12.984 78.2571 12.984C77.7771 12.984 77.3811 13.148 77.0691 13.476C76.7571 13.796 76.6011 14.228 76.6011 14.772C76.6011 15.316 76.7571 15.752 77.0691 16.08C77.3811 16.4 77.7771 16.56 78.2571 16.56ZM90.3084 11.544V16.92C90.3084 18.104 90.0004 18.984 89.3844 19.56C88.7684 20.136 87.8684 20.424 86.6844 20.424C86.0604 20.424 85.4684 20.348 84.9084 20.196C84.3484 20.044 83.8844 19.824 83.5164 19.536L84.2604 18.192C84.5324 18.416 84.8764 18.592 85.2924 18.72C85.7084 18.856 86.1244 18.924 86.5404 18.924C87.1884 18.924 87.6644 18.776 87.9684 18.48C88.2804 18.192 88.4364 17.752 88.4364 17.16V16.884C87.9484 17.42 87.2684 17.688 86.3964 17.688C85.8044 17.688 85.2604 17.56 84.7644 17.304C84.2764 17.04 83.8884 16.672 83.6004 16.2C83.3124 15.728 83.1684 15.184 83.1684 14.568C83.1684 13.952 83.3124 13.408 83.6004 12.936C83.8884 12.464 84.2764 12.1 84.7644 11.844C85.2604 11.58 85.8044 11.448 86.3964 11.448C87.3324 11.448 88.0444 11.756 88.5324 12.372V11.544H90.3084ZM86.7684 16.152C87.2644 16.152 87.6684 16.008 87.9804 15.72C88.3004 15.424 88.4604 15.04 88.4604 14.568C88.4604 14.096 88.3004 13.716 87.9804 13.428C87.6684 13.132 87.2644 12.984 86.7684 12.984C86.2724 12.984 85.8644 13.132 85.5444 13.428C85.2244 13.716 85.0644 14.096 85.0644 14.568C85.0644 15.04 85.2244 15.424 85.5444 15.72C85.8644 16.008 86.2724 16.152 86.7684 16.152ZM92.6507 9.096H94.5227V18H92.6507V9.096ZM103.184 14.796C103.184 14.82 103.172 14.988 103.148 15.3H98.2641C98.3521 15.7 98.5601 16.016 98.8881 16.248C99.2161 16.48 99.6241 16.596 100.112 16.596C100.448 16.596 100.744 16.548 101 16.452C101.264 16.348 101.508 16.188 101.732 15.972L102.728 17.052C102.12 17.748 101.232 18.096 100.064 18.096C99.3361 18.096 98.6921 17.956 98.1321 17.676C97.5721 17.388 97.1401 16.992 96.8361 16.488C96.5321 15.984 96.3801 15.412 96.3801 14.772C96.3801 14.14 96.5281 13.572 96.8241 13.068C97.1281 12.556 97.5401 12.16 98.0601 11.88C98.5881 11.592 99.1761 11.448 99.8241 11.448C100.456 11.448 101.028 11.584 101.54 11.856C102.052 12.128 102.452 12.52 102.74 13.032C103.036 13.536 103.184 14.124 103.184 14.796ZM99.8361 12.864C99.4121 12.864 99.0561 12.984 98.7681 13.224C98.4801 13.464 98.3041 13.792 98.2401 14.208H101.42C101.356 13.8 101.18 13.476 100.892 13.236C100.604 12.988 100.252 12.864 99.8361 12.864ZM112.101 18.096C111.421 18.096 110.809 17.956 110.265 17.676C109.729 17.388 109.309 16.992 109.005 16.488C108.701 15.984 108.549 15.412 108.549 14.772C108.549 14.132 108.701 13.56 109.005 13.056C109.309 12.552 109.729 12.16 110.265 11.88C110.809 11.592 111.421 11.448 112.101 11.448C112.781 11.448 113.389 11.592 113.925 11.88C114.461 12.16 114.881 12.552 115.185 13.056C115.489 13.56 115.641 14.132 115.641 14.772C115.641 15.412 115.489 15.984 115.185 16.488C114.881 16.992 114.461 17.388 113.925 17.676C113.389 17.956 112.781 18.096 112.101 18.096ZM112.101 16.56C112.581 16.56 112.973 16.4 113.277 16.08C113.589 15.752 113.745 15.316 113.745 14.772C113.745 14.228 113.589 13.796 113.277 13.476C112.973 13.148 112.581 12.984 112.101 12.984C111.621 12.984 111.225 13.148 110.913 13.476C110.601 13.796 110.445 14.228 110.445 14.772C110.445 15.316 110.601 15.752 110.913 16.08C111.225 16.4 111.621 16.56 112.101 16.56ZM125.76 11.448C126.568 11.448 127.208 11.688 127.68 12.168C128.16 12.64 128.4 13.352 128.4 14.304V18H126.528V14.592C126.528 14.08 126.42 13.7 126.204 13.452C125.996 13.196 125.696 13.068 125.304 13.068C124.864 13.068 124.516 13.212 124.26 13.5C124.004 13.78 123.876 14.2 123.876 14.76V18H122.004V14.592C122.004 13.576 121.596 13.068 120.78 13.068C120.348 13.068 120.004 13.212 119.748 13.5C119.492 13.78 119.364 14.2 119.364 14.76V18H117.492V11.544H119.28V12.288C119.52 12.016 119.812 11.808 120.156 11.664C120.508 11.52 120.892 11.448 121.308 11.448C121.764 11.448 122.176 11.54 122.544 11.724C122.912 11.9 123.208 12.16 123.432 12.504C123.696 12.168 124.028 11.908 124.428 11.724C124.836 11.54 125.28 11.448 125.76 11.448ZM137.324 9.096V18H135.536V17.256C135.072 17.816 134.4 18.096 133.52 18.096C132.912 18.096 132.36 17.96 131.864 17.688C131.376 17.416 130.992 17.028 130.712 16.524C130.432 16.02 130.292 15.436 130.292 14.772C130.292 14.108 130.432 13.524 130.712 13.02C130.992 12.516 131.376 12.128 131.864 11.856C132.36 11.584 132.912 11.448 133.52 11.448C134.344 11.448 134.988 11.708 135.452 12.228V9.096H137.324ZM133.844 16.56C134.316 16.56 134.708 16.4 135.02 16.08C135.332 15.752 135.488 15.316 135.488 14.772C135.488 14.228 135.332 13.796 135.02 13.476C134.708 13.148 134.316 12.984 133.844 12.984C133.364 12.984 132.968 13.148 132.656 13.476C132.344 13.796 132.188 14.228 132.188 14.772C132.188 15.316 132.344 15.752 132.656 16.08C132.968 16.4 133.364 16.56 133.844 16.56ZM142.729 18.096C142.049 18.096 141.437 17.956 140.893 17.676C140.357 17.388 139.937 16.992 139.633 16.488C139.329 15.984 139.177 15.412 139.177 14.772C139.177 14.132 139.329 13.56 139.633 13.056C139.937 12.552 140.357 12.16 140.893 11.88C141.437 11.592 142.049 11.448 142.729 11.448C143.409 11.448 144.017 11.592 144.553 11.88C145.089 12.16 145.509 12.552 145.813 13.056C146.117 13.56 146.269 14.132 146.269 14.772C146.269 15.412 146.117 15.984 145.813 16.488C145.509 16.992 145.089 17.388 144.553 17.676C144.017 17.956 143.409 18.096 142.729 18.096ZM142.729 16.56C143.209 16.56 143.601 16.4 143.905 16.08C144.217 15.752 144.373 15.316 144.373 14.772C144.373 14.228 144.217 13.796 143.905 13.476C143.601 13.148 143.209 12.984 142.729 12.984C142.249 12.984 141.853 13.148 141.541 13.476C141.229 13.796 141.073 14.228 141.073 14.772C141.073 15.316 141.229 15.752 141.541 16.08C141.853 16.4 142.249 16.56 142.729 16.56ZM141.493 10.656C141.253 10.656 141.053 10.58 140.893 10.428C140.733 10.268 140.653 10.068 140.653 9.828C140.653 9.588 140.733 9.392 140.893 9.24C141.053 9.08 141.253 9 141.493 9C141.733 9 141.929 9.08 142.081 9.24C142.241 9.392 142.321 9.588 142.321 9.828C142.321 10.068 142.241 10.268 142.081 10.428C141.929 10.58 141.733 10.656 141.493 10.656ZM143.917 10.656C143.677 10.656 143.477 10.58 143.317 10.428C143.165 10.268 143.089 10.068 143.089 9.828C143.089 9.588 143.165 9.392 143.317 9.24C143.477 9.08 143.677 9 143.917 9C144.157 9 144.357 9.08 144.517 9.24C144.677 9.392 144.757 9.588 144.757 9.828C144.757 10.068 144.677 10.268 144.517 10.428C144.357 10.58 144.157 10.656 143.917 10.656ZM156.388 11.448C157.196 11.448 157.836 11.688 158.308 12.168C158.788 12.64 159.028 13.352 159.028 14.304V18H157.156V14.592C157.156 14.08 157.048 13.7 156.832 13.452C156.624 13.196 156.324 13.068 155.932 13.068C155.492 13.068 155.144 13.212 154.888 13.5C154.632 13.78 154.504 14.2 154.504 14.76V18H152.632V14.592C152.632 13.576 152.224 13.068 151.408 13.068C150.976 13.068 150.632 13.212 150.376 13.5C150.12 13.78 149.992 14.2 149.992 14.76V18H148.12V11.544H149.908V12.288C150.148 12.016 150.44 11.808 150.784 11.664C151.136 11.52 151.52 11.448 151.936 11.448C152.392 11.448 152.804 11.54 153.172 11.724C153.54 11.9 153.836 12.16 154.06 12.504C154.324 12.168 154.656 11.908 155.056 11.724C155.464 11.54 155.908 11.448 156.388 11.448ZM167.7 14.796C167.7 14.82 167.688 14.988 167.664 15.3H162.78C162.868 15.7 163.076 16.016 163.404 16.248C163.732 16.48 164.14 16.596 164.628 16.596C164.964 16.596 165.26 16.548 165.516 16.452C165.78 16.348 166.024 16.188 166.248 15.972L167.244 17.052C166.636 17.748 165.748 18.096 164.58 18.096C163.852 18.096 163.208 17.956 162.648 17.676C162.088 17.388 161.656 16.992 161.352 16.488C161.048 15.984 160.896 15.412 160.896 14.772C160.896 14.14 161.044 13.572 161.34 13.068C161.644 12.556 162.056 12.16 162.576 11.88C163.104 11.592 163.692 11.448 164.34 11.448C164.972 11.448 165.544 11.584 166.056 11.856C166.568 12.128 166.968 12.52 167.256 13.032C167.552 13.536 167.7 14.124 167.7 14.796ZM164.352 12.864C163.928 12.864 163.572 12.984 163.284 13.224C162.996 13.464 162.82 13.792 162.756 14.208H165.936C165.872 13.8 165.696 13.476 165.408 13.236C165.12 12.988 164.768 12.864 164.352 12.864Z" fill="black"/>
<path d="M61.464 32.008C63.0427 32.008 64.2053 32.3227 64.952 32.952C65.7093 33.5813 66.088 34.424 66.088 35.48C66.088 36.1627 65.9173 36.7867 65.576 37.352C65.2347 37.9067 64.712 38.3547 64.008 38.696C63.3147 39.0267 62.456 39.192 61.432 39.192C60.6427 39.192 59.864 39.0907 59.096 38.888C58.3387 38.6747 57.6933 38.376 57.16 37.992L58.184 36.008C58.6107 36.328 59.1013 36.5787 59.656 36.76C60.2107 36.9307 60.7813 37.016 61.368 37.016C62.0187 37.016 62.5307 36.888 62.904 36.632C63.2773 36.376 63.464 36.0187 63.464 35.56C63.464 35.08 63.2667 34.7173 62.872 34.472C62.488 34.2267 61.816 34.104 60.856 34.104H57.992L58.568 27.8H65.4V29.88H60.728L60.552 32.008H61.464Z" fill="black"/>
<g clip-path="url(#clip0_0_5530)">
<path d="M88.6285 31.0073L84.3247 30.3499L82.3956 26.2409C82.2515 25.934 81.7481 25.934 81.604 26.2409L79.6755 30.3499L75.3717 31.0073C75.0182 31.0615 74.877 31.4914 75.1249 31.7452L78.2516 34.95L77.5125 39.4808C77.4536 39.8407 77.838 40.1108 78.1559 39.934L82.0001 37.8095L85.8443 39.9346C86.1593 40.1096 86.5472 39.8448 86.4877 39.4814L85.7486 34.9506L88.8753 31.7458C89.1232 31.4914 88.9814 31.0615 88.6285 31.0073Z" fill="#FFC107"/>
</g>
<g clip-path="url(#clip1_0_5530)">
<path d="M108.228 31.0073L103.924 30.3499L101.995 26.2409C101.851 25.934 101.348 25.934 101.204 26.2409L99.2751 30.3499L94.9713 31.0073C94.6178 31.0615 94.4766 31.4914 94.7245 31.7452L97.8512 34.95L97.1121 39.4808C97.0532 39.8407 97.4376 40.1108 97.7555 39.934L101.6 37.8095L105.444 39.9346C105.759 40.1096 106.147 39.8448 106.087 39.4814L105.348 34.9506L108.475 31.7458C108.723 31.4914 108.581 31.0615 108.228 31.0073Z" fill="#FFC107"/>
</g>
<g clip-path="url(#clip2_0_5530)">
<path d="M127.828 31.0073L123.524 30.3499L121.595 26.2409C121.451 25.934 120.947 25.934 120.803 26.2409L118.875 30.3499L114.571 31.0073C114.217 31.0615 114.076 31.4914 114.324 31.7452L117.451 34.95L116.712 39.4808C116.653 39.8407 117.037 40.1108 117.355 39.934L121.199 37.8095L125.043 39.9346C125.358 40.1096 125.746 39.8448 125.687 39.4814L124.948 34.9506L128.074 31.7458C128.322 31.4914 128.181 31.0615 127.828 31.0073Z" fill="#FFC107"/>
</g>
<g clip-path="url(#clip3_0_5530)">
<path d="M147.429 31.0073L143.125 30.3499L141.196 26.2409C141.052 25.934 140.549 25.934 140.405 26.2409L138.476 30.3499L134.172 31.0073C133.819 31.0615 133.678 31.4914 133.926 31.7452L137.052 34.95L136.313 39.4808C136.254 39.8407 136.639 40.1108 136.957 39.934L140.801 37.8095L144.645 39.9346C144.96 40.1096 145.348 39.8448 145.288 39.4814L144.549 34.9506L147.676 31.7458C147.924 31.4914 147.782 31.0615 147.429 31.0073Z" fill="#FFC107"/>
</g>
<g clip-path="url(#clip4_0_5530)">
<path d="M167.029 31.0073L162.725 30.3499L160.796 26.2409C160.652 25.934 160.148 25.934 160.004 26.2409L158.076 30.3499L153.772 31.0073C153.419 31.0615 153.277 31.4914 153.525 31.7452L156.652 34.95L155.913 39.4808C155.854 39.8407 156.238 40.1108 156.556 39.934L160.4 37.8095L164.245 39.9346C164.56 40.1096 164.948 39.8448 164.888 39.4814L164.149 34.9506L167.276 31.7458C167.524 31.4914 167.382 31.0615 167.029 31.0073Z" fill="#FFC107"/>
</g>
<defs>
<filter id="filter0_d_0_5530" x="-4" y="-2" width="58" height="58" filterUnits="userSpaceOnUse" color-interpolation-filters="sRGB">
<feFlood flood-opacity="0" result="BackgroundImageFix"/>
<feColorMatrix in="SourceAlpha" type="matrix" values="0 0 0 0 0 0 0 0 0 0 0 0 0 0 0 0 0 0 127 0" result="hardAlpha"/>
<feOffset dy="2"/>
<feGaussianBlur stdDeviation="2"/>
<feColorMatrix type="matrix" values="0 0 0 0 1 0 0 0 0 1 0 0 0 0 1 0 0 0 0.1 0"/>
<feBlend mode="normal" in2="BackgroundImageFix" result="effect1_dropShadow_0_5530"/>
<feBlend mode="normal" in="SourceGraphic" in2="effect1_dropShadow_0_5530" result="shape"/>
</filter>
<clipPath id="clip0_0_5530">
<rect width="14" height="14" fill="white" transform="translate(75 26)"/>
</clipPath>
<clipPath id="clip1_0_5530">
<rect width="14" height="14" fill="white" transform="translate(94.5996 26)"/>
</clipPath>
<clipPath id="clip2_0_5530">
<rect width="14" height="14" fill="white" transform="translate(114.199 26)"/>
</clipPath>
<clipPath id="clip3_0_5530">
<rect width="14" height="14" fill="white" transform="translate(133.801 26)"/>
</clipPath>
<clipPath id="clip4_0_5530">
<rect width="14" height="14" fill="white" transform="translate(153.4 26)"/>
</clipPath>
</defs>
</svg>
