<svg width="37" height="37" viewBox="0 0 37 37" fill="none" xmlns="http://www.w3.org/2000/svg">
<g clip-path="url(#clip0_0_1969)">
<path d="M22.043 18.5C22.043 20.4557 20.4576 22.041 18.502 22.041C16.5463 22.041 14.9609 20.4557 14.9609 18.5C14.9609 16.5443 16.5463 14.959 18.502 14.959C20.4576 14.959 22.043 16.5443 22.043 18.5Z" fill="white"/>
<path d="M26.7794 12.2348C26.6092 11.7735 26.3376 11.356 25.9847 11.0133C25.642 10.6605 25.2248 10.3889 24.7633 10.2187C24.389 10.0733 23.8267 9.90026 22.7909 9.85312C21.6705 9.80202 21.3346 9.79102 18.4982 9.79102C15.6615 9.79102 15.3256 9.80174 14.2055 9.85284C13.1697 9.90026 12.6071 10.0733 12.2331 10.2187C11.7716 10.3889 11.3541 10.6605 11.0116 11.0133C10.6588 11.356 10.3872 11.7732 10.2167 12.2348C10.0714 12.6091 9.89831 13.1717 9.85117 14.2074C9.80007 15.3275 9.78906 15.6634 9.78906 18.5002C9.78906 21.3366 9.80007 21.6725 9.85117 22.7929C9.89831 23.8286 10.0714 24.3909 10.2167 24.7652C10.3872 25.2268 10.6585 25.644 11.0114 25.9867C11.3541 26.3396 11.7713 26.6111 12.2328 26.7813C12.6071 26.927 13.1697 27.1 14.2055 27.1472C15.3256 27.1983 15.6612 27.209 18.4979 27.209C21.3349 27.209 21.6708 27.1983 22.7907 27.1472C23.8264 27.1 24.389 26.927 24.7633 26.7813C25.6898 26.424 26.422 25.6917 26.7794 24.7652C26.9248 24.3909 27.0978 23.8286 27.1452 22.7929C27.1963 21.6725 27.2071 21.3366 27.2071 18.5002C27.2071 15.6634 27.1963 15.3275 27.1452 14.2074C27.0981 13.1717 26.925 12.6091 26.7794 12.2348ZM18.4982 23.9548C15.4853 23.9548 13.043 21.5127 13.043 18.4999C13.043 15.487 15.4853 13.0449 18.4982 13.0449C21.5108 13.0449 23.9531 15.487 23.9531 18.4999C23.9531 21.5127 21.5108 23.9548 18.4982 23.9548ZM24.1688 14.1041C23.4648 14.1041 22.894 13.5333 22.894 12.8293C22.894 12.1253 23.4648 11.5545 24.1688 11.5545C24.8728 11.5545 25.4436 12.1253 25.4436 12.8293C25.4433 13.5333 24.8728 14.1041 24.1688 14.1041Z" fill="white"/>
<path d="M18.5 0C8.28429 0 0 8.28429 0 18.5C0 28.7157 8.28429 37 18.5 37C28.7157 37 37 28.7157 37 18.5C37 8.28429 28.7157 0 18.5 0ZM29.059 22.8797C29.0076 24.0105 28.8278 24.7826 28.5652 25.4584C28.0134 26.8854 26.8854 28.0134 25.4584 28.5652C24.7829 28.8278 24.0105 29.0073 22.88 29.059C21.7472 29.1106 21.3853 29.123 18.5003 29.123C15.615 29.123 15.2534 29.1106 14.1203 29.059C12.9897 29.0073 12.2174 28.8278 11.5419 28.5652C10.8328 28.2985 10.1909 27.8804 9.66016 27.3398C9.11987 26.8094 8.7018 26.1672 8.43504 25.4584C8.17251 24.7829 7.99269 24.0105 7.94131 22.88C7.88909 21.7469 7.87695 21.385 7.87695 18.5C7.87695 15.615 7.88909 15.2531 7.94103 14.1203C7.99241 12.9895 8.17194 12.2174 8.43447 11.5416C8.70123 10.8328 9.11958 10.1906 9.66016 9.66016C10.1906 9.11958 10.8328 8.70152 11.5416 8.43475C12.2174 8.17223 12.9895 7.99269 14.1203 7.94103C15.2531 7.88937 15.615 7.87695 18.5 7.87695C21.385 7.87695 21.7469 7.88937 22.8797 7.94131C24.0105 7.99269 24.7826 8.17223 25.4584 8.43447C26.1672 8.70123 26.8094 9.11958 27.3401 9.66016C27.8804 10.1909 28.2988 10.8328 28.5652 11.5416C28.8281 12.2174 29.0076 12.9895 29.0592 14.1203C29.1109 15.2531 29.123 15.615 29.123 18.5C29.123 21.385 29.1109 21.7469 29.059 22.8797Z" fill="white"/>
</g>
<defs>
<clipPath id="clip0_0_1969">
<rect width="37" height="37" fill="white"/>
</clipPath>
</defs>
</svg>
