<svg width="37" height="37" viewBox="0 0 37 37" fill="none" xmlns="http://www.w3.org/2000/svg">
<g clip-path="url(#clip0_0_1973)">
<path d="M18.4997 37.0003C28.7168 37.0003 36.9993 28.7177 36.9993 18.5006C36.9993 8.28356 28.7168 0.000976562 18.4997 0.000976562C8.28258 0.000976562 0 8.28356 0 18.5006C0 28.7177 8.28258 37.0003 18.4997 37.0003Z" fill="white"/>
<path d="M19.9923 24.7736C18.5937 24.6654 18.006 23.9719 16.9092 23.3061C16.3064 26.469 15.5697 29.5009 13.3875 31.0848C12.7131 26.3044 14.3762 22.7138 15.1485 18.9026C13.8321 16.6865 15.3068 12.226 18.0835 13.3252C21.501 14.6766 15.1248 21.5652 19.4053 22.4256C23.874 23.3239 25.6983 14.6716 22.9269 11.8573C18.9228 7.79419 11.2717 11.765 12.2126 17.5816C12.4417 19.0035 13.9112 19.4352 12.7996 21.3974C10.2369 20.8298 9.47246 18.8086 9.57073 16.1141C9.72935 11.7033 13.534 8.61499 17.3501 8.18761C22.1763 7.64744 26.7061 9.95981 27.3314 14.4995C28.0348 19.6232 25.1526 25.172 19.9923 24.7736Z" fill="#003153"/>
</g>
<defs>
<clipPath id="clip0_0_1973">
<rect width="37" height="37" fill="white"/>
</clipPath>
</defs>
</svg>
