<svg width="36" height="32" viewBox="0 0 36 32" fill="none" xmlns="http://www.w3.org/2000/svg">
<path d="M29.465 0C25.8711 0 22.9564 2.89711 22.9299 6.48653H8.25478L6.94953 1.30524H0V3.23665H5.43704L10.7947 24.5439C9.23371 24.8746 8.06075 26.2548 8.06075 27.904C8.06075 29.8001 9.61294 31.3435 11.5223 31.3435C13.4317 31.3435 14.9838 29.8001 14.9838 27.904C14.9838 27.3616 14.856 26.8501 14.6311 26.3959H22.8902C22.6654 26.8501 22.5375 27.3616 22.5375 27.904C22.5375 29.8001 24.0897 31.3435 25.999 31.3435C27.9084 31.3435 29.4606 29.8001 29.4606 27.904C29.4606 26.0078 27.9084 24.4645 25.999 24.4645H12.7746L11.9588 21.2146H29.2401L31.3611 12.7878C34.0465 11.9765 36 9.48065 36 6.53503C36 2.92357 33.072 0 29.465 0ZM25.999 26.3959C26.8368 26.3959 27.5203 27.0706 27.5203 27.904C27.5203 28.7374 26.8368 29.4165 25.999 29.4165C25.1612 29.4165 24.4777 28.7374 24.4777 27.904C24.4777 27.0706 25.1612 26.3959 25.999 26.3959ZM13.0436 27.904C13.0436 28.7374 12.3601 29.4165 11.5223 29.4165C10.6845 29.4165 10.001 28.7374 10.001 27.904C10.001 27.0706 10.6845 26.3959 11.5223 26.3959C12.3601 26.3959 13.0436 27.0706 13.0436 27.904ZM27.7232 19.2876H11.4738L8.73983 8.41352H23.2077C23.9927 11.0505 26.4091 12.9907 29.2886 13.0657L27.7232 19.2876ZM29.6722 8.41352L28.8873 9.19843L28.0627 8.41352L26.0431 6.49094L26.0475 6.48653L27.3263 5.1416L28.7418 6.48653L28.852 6.59236L28.9579 6.48653L31.5728 3.86722L32.8868 5.1901L31.5948 6.48653L29.6722 8.41352Z" fill="#0A5A8F"/>
</svg>
