<svg width="19" height="19" viewBox="0 0 19 19" fill="none" xmlns="http://www.w3.org/2000/svg">
<path d="M15.6165 11.2143C14.7254 10.3232 13.6734 9.65057 12.5261 9.22302C13.569 8.35418 14.2346 7.04583 14.2346 5.58459C14.2346 2.97379 12.1108 0.85 9.5 0.85C6.88917 0.85 4.76538 2.97379 4.76538 5.58459C4.76538 7.04585 5.43093 8.3542 6.47389 9.22302C5.32654 9.65055 4.27466 10.3232 3.38351 11.2143L3.48957 11.3204L3.3835 11.2143C1.74997 12.8479 0.85 15.0206 0.85 17.3308C0.85 17.7833 1.21675 18.15 1.66918 18.15H17.3308C17.7832 18.15 18.15 17.7833 18.15 17.3308C18.15 15.0206 17.25 12.8479 15.6165 11.2143ZM6.4038 5.58459C6.4038 3.87745 7.79286 2.48838 9.50003 2.48838C11.2072 2.48838 12.5963 3.87745 12.5963 5.58459C12.5963 7.29172 11.2072 8.68079 9.50003 8.68079C7.79286 8.68082 6.4038 7.29173 6.4038 5.58459ZM16.464 16.5116H2.53595C2.94281 13.03 5.91107 10.3192 9.5 10.3192C13.0889 10.3192 16.0572 13.03 16.464 16.5116Z" fill="#0A5A8F" stroke="#0A5A8F" stroke-width="0.3"/>
</svg>
