<svg width="33" height="29" viewBox="0 0 33 29" fill="none" xmlns="http://www.w3.org/2000/svg">
<path fill-rule="evenodd" clip-rule="evenodd" d="M20.18 14.5831C20.1858 14.5906 20.1915 14.598 20.1981 14.6045C20.3506 14.783 20.4969 14.9653 20.6369 15.1512C20.9456 15.0806 21.3182 15.1594 21.6068 15.3885C21.7473 15.5026 21.8848 15.6167 22.0223 15.7309C22.0911 15.7879 22.1599 15.845 22.2291 15.9021C22.239 15.8971 22.2486 15.8916 22.258 15.8862C22.2734 15.8774 22.2884 15.8687 22.3048 15.8626C22.3148 15.8551 22.3266 15.8495 22.3375 15.8444C22.341 15.8427 22.3444 15.8411 22.3476 15.8395C22.7097 15.642 23.0916 15.4873 23.4933 15.3753V15.372C23.5144 15.1273 23.5384 14.8852 23.5625 14.6409L23.569 14.5753C23.569 14.572 23.569 14.5654 23.5723 14.5621C23.6382 14.0288 24.0563 13.5975 24.4974 13.5975H25.6399C26.0876 13.5975 26.509 14.0354 26.5716 14.5753L26.5781 14.6409C26.6022 14.8852 26.6261 15.1273 26.6473 15.372C27.095 15.5004 27.5197 15.6782 27.9148 15.9021C28.1188 15.731 28.3261 15.5599 28.5333 15.3888L28.5338 15.3885C28.9651 15.0461 29.584 15.0395 29.8968 15.3687C29.9626 15.4346 30.0285 15.5003 30.0944 15.5659C30.2917 15.7626 30.4886 15.9589 30.6836 16.1589C31.0063 16.4684 30.9964 17.0807 30.6573 17.512C30.4894 17.7194 30.3182 17.9268 30.1437 18.131C30.3709 18.526 30.5453 18.9507 30.6705 19.3952H30.6737C30.8071 19.4084 30.9396 19.4215 31.0721 19.4347C31.2046 19.4479 31.3371 19.461 31.4705 19.4742C32.0104 19.5368 32.4483 19.9582 32.4483 20.4059V21.545C32.4483 21.9928 32.0104 22.4142 31.4705 22.4735C31.3371 22.4866 31.2046 22.4998 31.0721 22.513C30.9396 22.5261 30.8071 22.5393 30.6737 22.5525C30.5453 22.9969 30.3709 23.4216 30.1437 23.82C30.3182 24.0241 30.4894 24.2315 30.6573 24.439C30.9964 24.8702 31.0063 25.4793 30.6836 25.7921C30.508 25.9699 30.3324 26.1447 30.1569 26.3196C30.0691 26.407 29.9813 26.4944 29.8935 26.5822C29.5807 26.9115 28.9618 26.9016 28.5338 26.5625C28.3264 26.3913 28.1189 26.2201 27.9148 26.0489C27.5197 26.2728 27.095 26.4505 26.6473 26.5756C26.6242 26.8423 26.5979 27.109 26.5716 27.3757C26.509 27.9156 26.0876 28.3502 25.6399 28.3502H24.4974C24.053 28.3502 23.6316 27.9156 23.569 27.3757C23.5427 27.109 23.5163 26.8423 23.4933 26.5756C23.0455 26.4505 22.6241 26.2728 22.2291 26.0489C22.1599 26.106 22.091 26.1631 22.0222 26.2202C21.8847 26.3343 21.7472 26.4484 21.6068 26.5625C21.1788 26.8983 20.573 26.9115 20.257 26.5954L19.4504 25.7888C19.1343 25.4727 19.1475 24.8637 19.4866 24.439C19.5623 24.3435 19.6413 24.248 19.7203 24.1558L19.9969 23.82C19.8356 23.5336 19.6973 23.234 19.5886 22.9212C19.5886 22.9211 19.5886 22.921 19.5885 22.9208H0.902084C0.40495 22.9208 0 22.5159 0 22.0188C0 18.9569 1.1918 16.0795 3.35483 13.9132C4.62565 12.6456 6.1401 11.7106 7.79282 11.1542C6.2685 10.0283 5.27752 8.21752 5.27752 6.1796C5.27752 2.7721 8.05291 0 11.4604 0C14.8679 0 17.64 2.7721 17.64 6.1796C17.64 8.21752 16.6523 10.0283 15.1247 11.1542C16.7807 11.7106 18.2952 12.6456 19.5627 13.9132C19.7734 14.1239 19.971 14.3379 20.1619 14.5617C20.1685 14.5683 20.1743 14.5757 20.18 14.5831ZM17.6923 21.1167H1.84697C2.3013 16.2112 6.4397 12.3625 11.4604 12.3625C13.8045 12.3625 15.961 13.202 17.6334 14.598C18.0911 14.9799 18.5158 15.4046 18.8944 15.8622C19.035 16.0312 19.1698 16.2052 19.2986 16.3839C19.1493 16.7124 19.2119 17.1694 19.4866 17.512C19.6545 17.7194 19.8257 17.9268 19.9969 18.131C19.773 18.526 19.5952 18.9507 19.4734 19.3952H19.4701C19.3368 19.4084 19.2043 19.4215 19.0718 19.4347C18.9392 19.4479 18.8067 19.461 18.6734 19.4742C18.1302 19.5368 17.6923 19.9549 17.6923 20.4059V21.1167ZM7.08169 6.1796C7.08169 8.59284 9.04718 10.5583 11.4604 10.5583C13.8737 10.5583 15.8359 8.59284 15.8359 6.1796C15.8359 3.76637 13.8737 1.80417 11.4604 1.80417C9.04718 1.80417 7.08169 3.76637 7.08169 6.1796ZM24.9781 23.6488C25.0077 23.6521 25.0374 23.6521 25.067 23.6521C26.5485 23.6521 27.7469 22.4504 27.7469 20.9722C27.7469 19.494 26.5485 18.2956 25.067 18.2956C24.7048 18.2956 24.3592 18.368 24.0431 18.4997C24.0036 18.5162 23.9674 18.5326 23.9312 18.5524C23.9147 18.5557 23.9015 18.5622 23.8884 18.5721C23.3386 18.8388 22.8974 19.2898 22.6406 19.8429C22.4793 20.1853 22.3904 20.5672 22.3904 20.9722C22.3904 21.0216 22.3904 21.0677 22.397 21.1171C22.4167 21.5681 22.5517 21.9895 22.7723 22.3517C22.9007 22.5624 23.0554 22.7566 23.2332 22.9212C23.6908 23.3558 24.3032 23.6291 24.9781 23.6488Z" fill="#5F768C"/>
</svg>
