<svg width="150" height="150" viewBox="0 0 150 150" fill="none" xmlns="http://www.w3.org/2000/svg">
<g clip-path="url(#clip0_0_15581)">
<path d="M75 150C33.64 150 0 116.36 0 75C0 33.64 33.64 0 75 0C116.36 0 150 33.65 150 75C150 116.35 116.36 150 75 150ZM75 4C35.85 4 4 35.85 4 75C4 114.15 35.85 146 75 146C114.15 146 146 114.15 146 75C146 35.85 114.15 4 75 4Z" fill="#26648F"/>
<path d="M102.171 101.45C94.6606 101.45 89.3106 98.86 85.8106 93.53C83.1406 89.47 76.8706 79.99 76.8706 79.99C76.0706 78.74 75.8006 77.25 76.1006 75.87C76.3906 74.59 77.1406 73.5 78.2306 72.82C80.5706 71.37 83.7606 72.17 85.3406 74.62L86.4706 76.17V56.77C86.4706 54.36 88.4306 52.39 90.8506 52.39C92.1606 52.39 93.3406 52.97 94.1506 53.89V52.92C94.1506 50.51 96.1106 48.54 98.5306 48.54C100.651 48.54 102.431 50.06 102.831 52.07C103.631 51.09 104.851 50.47 106.211 50.47C108.621 50.47 110.591 52.43 110.591 54.85V57.73C111.391 56.81 112.581 56.22 113.891 56.22C116.311 56.22 118.281 58.18 118.281 60.6V86.51C118.261 89.01 117.491 101.45 102.171 101.45ZM79.3906 78.36C79.3906 78.36 85.6506 87.83 88.3206 91.88C91.2606 96.36 95.6606 98.45 102.171 98.45C114.321 98.45 115.271 89.32 115.271 86.52V60.6C115.271 59.84 114.651 59.22 113.881 59.22C113.121 59.22 112.501 59.84 112.501 60.6V73.08C112.501 74.43 111.401 75.54 110.041 75.54C108.681 75.54 107.571 74.44 107.571 73.08V54.85C107.571 54.08 106.971 53.47 106.191 53.47C105.431 53.47 104.821 54.09 104.821 54.85V71.17C104.821 72.52 103.721 73.62 102.361 73.62C101.001 73.62 99.8906 72.52 99.8906 71.17V52.93C99.8906 52.17 99.2706 51.55 98.5106 51.55C97.7506 51.55 97.1306 52.17 97.1306 52.93V71.17C97.1306 72.52 96.0306 73.62 94.6706 73.62C93.3206 73.62 92.2106 72.52 92.2106 71.17V56.77C92.2106 56.01 91.5906 55.39 90.8306 55.39C90.0706 55.39 89.4506 56.01 89.4506 56.77V85.35L82.8506 76.32C82.1006 75.17 80.7606 74.77 79.8006 75.36C79.2906 75.68 79.0906 76.17 79.0106 76.52C78.9006 77.13 79.0306 77.8 79.3906 78.36Z" fill="#26648F"/>
<path d="M71.4007 79.1698C71.4007 79.1698 65.1307 88.6498 62.4607 92.7098C59.7907 96.7798 55.4607 99.9498 47.3607 99.9498C33.9607 99.9498 32.7607 89.6098 32.7607 86.5198V60.5998C32.7607 59.0098 34.0507 57.7198 35.6507 57.7198C37.2307 57.7198 38.5307 59.0098 38.5307 60.5998V73.0798C38.5307 73.5998 38.9507 74.0398 39.4807 74.0398C40.0207 74.0398 40.4507 73.5998 40.4507 73.0798V54.8498C40.4507 53.2498 41.7307 51.9698 43.3307 51.9698C44.9207 51.9698 46.2107 53.2498 46.2107 54.8498V71.1698C46.2107 71.6898 46.6507 72.1198 47.1707 72.1198C47.7007 72.1198 48.1407 71.6898 48.1407 71.1698V52.9298C48.1407 51.3498 49.4207 50.0498 51.0207 50.0498C52.6107 50.0498 53.9007 51.3398 53.9007 52.9298V71.1698C53.9007 71.6898 54.3307 72.1198 54.8707 72.1198C55.3907 72.1198 55.8207 71.6898 55.8207 71.1698V56.7698C55.8207 55.1798 57.1107 53.8898 58.7007 53.8898C60.2907 53.8898 61.5807 55.1698 61.5807 56.7698V80.7598L65.4707 75.4398C66.6207 73.6698 68.8707 73.0698 70.5207 74.0898C72.1407 75.1298 72.5407 77.3998 71.4007 79.1698Z" fill="#26648F"/>
</g>
<defs>
<clipPath id="clip0_0_15581">
<rect width="150" height="150" fill="white"/>
</clipPath>
</defs>
</svg>
