<svg width="150" height="150" viewBox="0 0 150 150" fill="none" xmlns="http://www.w3.org/2000/svg">
<g clip-path="url(#clip0_0_15646)">
<path d="M75 150C33.64 150 0 116.36 0 75C0 33.64 33.64 0 75 0C116.36 0 150 33.64 150 75C150 116.36 116.36 150 75 150ZM75 4C35.85 4 4 35.85 4 75C4 114.15 35.85 146 75 146C114.15 146 146 114.15 146 75C146 35.85 114.15 4 75 4Z" fill="#26648F"/>
<path d="M80.3084 36.1641C77.3014 38.5121 75.0214 40.7251 73.1804 43.0891C72.8594 43.5111 72.5554 43.8831 72.5044 43.9341C72.1664 44.2551 70.4104 46.8391 69.5654 48.2411C68.6194 49.8121 66.9984 52.9371 66.3564 54.4401C66.2044 54.7951 65.9845 55.3351 65.8495 55.6221C65.7315 55.9261 65.5284 56.4501 65.4104 56.7711C65.2924 57.0921 65.1404 57.5141 65.0724 57.7001C64.9204 58.0381 64.0424 60.7401 63.7384 61.7541C63.5024 62.5311 62.7254 65.8081 62.3704 67.4971C62.1004 68.8311 61.8134 70.8241 61.3574 74.5071C61.2734 75.3011 61.1884 77.0581 61.1884 78.4261C61.1884 79.8111 61.1204 80.9261 61.0364 80.9261C60.5294 80.9261 58.9424 78.8821 58.2664 77.3281C58.1144 76.9901 57.8784 76.4501 57.7424 76.1461C57.2694 75.0991 56.4924 72.5481 56.1204 70.9611C55.9344 70.0831 55.6984 69.0861 55.6134 68.7481C55.5124 68.4101 55.4444 67.9371 55.4444 67.7011C55.4444 66.9751 55.1404 67.0251 54.9204 67.7851C54.8194 68.1901 54.5994 68.9341 54.4304 69.4401C54.1094 70.4701 53.8564 71.6531 53.6024 73.3761C53.1634 76.2981 53.0784 76.9061 52.9104 78.5281C52.5894 81.7371 52.6734 84.9801 53.2484 90.9771C53.6204 94.8791 54.6504 99.6591 55.6134 101.956C56.1704 103.307 56.4074 103.814 57.0824 105.165C58.5354 108.087 61.1194 111.195 63.6194 113.053C64.3454 113.594 65.0044 114.033 65.0894 114.033C65.3264 114.033 65.2754 113.763 64.9884 113.526C64.6334 113.239 63.3504 111.212 62.9274 110.317C60.7144 105.452 60.2084 97.3111 61.8124 91.7711C62.0824 90.8591 62.4204 90.6731 62.5044 91.4161C62.5384 91.6361 62.6224 92.0071 62.6904 92.2441C62.7744 92.4801 62.9264 93.0041 63.0454 93.4261C63.5694 95.3521 64.9374 97.8181 65.4774 97.8181C65.7144 97.8181 65.9164 96.4671 65.9164 94.7951C65.9164 93.4611 66.5584 89.9641 67.2334 87.5151C68.0444 84.6101 69.9364 80.7421 71.7094 78.3941C73.2124 76.3841 77.2154 72.6511 77.8404 72.6511C77.9244 72.6511 78.0094 74.1201 78.0264 75.9111C78.0604 77.6851 78.1614 79.5761 78.2464 80.0831C78.5674 81.7381 79.0234 83.5961 79.2594 84.2211C79.3434 84.4071 79.5634 85.0151 79.7834 85.5721C80.1884 86.6361 82.6374 91.5181 83.1444 92.2441C83.5834 92.8691 85.5094 96.8891 85.5094 97.1761C85.5094 97.3111 85.5774 97.4801 85.6614 97.5641C86.0334 98.0031 86.8604 101.888 86.8604 103.307C86.8604 105.266 86.2694 107.631 85.2894 109.557C84.3774 111.381 82.9754 113.07 81.1684 114.54C80.3574 115.182 80.3404 115.317 81.0504 115.03C86.7254 112.733 91.6744 108.105 94.5294 102.413C96.1004 99.3221 96.6744 97.2111 97.1814 92.8531C97.6544 88.6641 96.4044 82.3641 94.0564 77.1281C93.8534 76.6721 93.5664 76.0131 93.4484 75.6921C93.3134 75.3711 92.4854 73.6991 91.6244 71.9761C88.4994 65.8621 86.7764 62.4161 86.4724 61.7401C83.1444 53.9701 82.0304 48.2271 82.1654 39.7991C82.2164 37.5691 82.3004 35.5431 82.3684 35.2721C82.5884 34.5251 82.1834 34.6941 80.3084 36.1641Z" fill="#26648F"/>
</g>
<defs>
<clipPath id="clip0_0_15646">
<rect width="150" height="150" fill="white"/>
</clipPath>
</defs>
</svg>
