<svg width="150" height="150" viewBox="0 0 150 150" fill="none" xmlns="http://www.w3.org/2000/svg">
<g clip-path="url(#clip0_0_15681)">
<path d="M75 150C33.6558 150 0 116.344 0 75C0 33.6558 33.6558 0 75 0C116.344 0 150 33.6558 150 75C150 116.344 116.344 150 75 150ZM75 3.97149C35.8452 3.97149 3.97149 35.8452 3.97149 75C3.97149 114.155 35.8452 146.029 75 146.029C114.155 146.029 146.029 114.155 146.029 75C146.029 35.8452 114.155 3.97149 75 3.97149Z" fill="#25648E"/>
<path d="M52.1895 103.311V70.113C52.1895 66.6506 54.9899 63.7993 58.5031 63.7993H91.7007C95.163 63.7993 98.0143 66.5997 98.0143 70.113V91.8543C98.0143 92.8217 97.2506 93.5855 96.2831 93.5855C95.3157 93.5855 94.552 92.8217 94.552 91.8543V70.113C94.552 68.5346 93.2791 67.2616 91.7007 67.2616H58.5031C56.9247 67.2616 55.6518 68.5346 55.6518 70.113V103.311C55.6518 104.889 56.9247 106.162 58.5031 106.162H80.2444C81.2119 106.162 81.9756 106.926 81.9756 107.893C81.9756 108.86 81.2119 109.624 80.2444 109.624H58.5031C54.9899 109.573 52.1895 106.773 52.1895 103.311Z" fill="#25648E"/>
<path d="M73.265 84.876C72.9086 85.2324 72.7559 85.6397 72.7559 86.098V100.966C72.7559 101.933 73.5196 102.697 74.487 102.697C75.4544 102.697 76.2182 101.933 76.2182 100.966V90.2222L99.6398 113.644C100.302 114.306 101.422 114.306 102.084 113.644C102.44 113.287 102.593 112.88 102.593 112.422C102.593 111.964 102.44 111.556 102.084 111.2L78.6622 87.7782H89.4056C90.373 87.7782 91.1367 87.0145 91.1367 86.0471C91.1367 85.0797 90.373 84.3159 89.4056 84.3159H74.487C74.0797 84.3668 73.6214 84.5705 73.265 84.876Z" fill="#25648E"/>
<path d="M102.034 113.645C102.39 113.288 102.543 112.881 102.543 112.423V97.555C102.543 96.5876 101.779 95.8238 100.812 95.8238C99.8445 95.8238 99.0808 96.5876 99.0808 97.555V108.298L75.6592 84.8768C74.9973 84.2149 73.8771 84.2149 73.2152 84.8768C72.8588 85.2332 72.7061 85.6406 72.7061 86.0988C72.7061 86.557 72.8588 86.9644 73.2152 87.3208L96.6368 110.742H85.8934C84.926 110.742 84.1623 111.506 84.1623 112.474C84.1623 113.441 84.926 114.205 85.8934 114.205H100.761C101.27 114.154 101.728 114.001 102.034 113.645Z" fill="#25648E"/>
<path d="M111.609 75.9685H101.884C100.815 75.9685 100 75.1029 100 74.0846C100 73.0154 100.866 72.2007 101.884 72.2007H107.027L75.0003 40.4797L42.9738 72.2007H48.1164C49.1856 72.2007 50.0003 73.0663 50.0003 74.0846C50.0003 75.1539 49.1347 75.9685 48.1164 75.9685H38.3913C37.6276 75.9685 36.9147 75.5103 36.6601 74.7974C36.3546 74.0846 36.5583 73.2699 37.0675 72.7099L73.2691 36.8647C73.5746 36.2027 74.2365 35.7954 74.9493 35.7954H75.1021C75.8149 35.7954 76.4768 36.2027 76.7823 36.8647L112.984 72.7099C113.544 73.2699 113.697 74.0846 113.391 74.7974C113.086 75.4594 112.373 75.9685 111.609 75.9685Z" fill="#25648E"/>
</g>
<defs>
<clipPath id="clip0_0_15681">
<rect width="150" height="150" fill="white"/>
</clipPath>
</defs>
</svg>
