<svg width="150" height="150" viewBox="0 0 150 150" fill="none" xmlns="http://www.w3.org/2000/svg">
<g clip-path="url(#clip0_0_15593)">
<path d="M75.3496 150C33.9896 150 0.349609 116.36 0.349609 75C0.349609 33.64 33.9896 0 75.3496 0C116.71 0 150.35 33.64 150.35 75C150.35 116.36 116.7 150 75.3496 150ZM75.3496 4C36.1996 4 4.34961 35.85 4.34961 75C4.34961 114.15 36.1996 146 75.3496 146C114.5 146 146.35 114.15 146.35 75C146.35 35.85 114.5 4 75.3496 4Z" fill="#26648F"/>
<path d="M59.53 58.6502C58.12 59.4102 57.26 60.1502 57.36 61.0302C57.46 62.0702 58.14 63.1402 59.43 64.3702L62.11 62.6103C61.01 61.4603 60.11 60.1702 59.53 58.6502ZM61.6 66.1703L62.28 66.7003L64.92 64.9603C64.12 64.3903 63.36 63.7903 62.65 63.1403L61.6 66.1703ZM64.47 68.3603C64.7 68.5203 64.92 68.6903 65.15 68.8503L68.04 66.9403C67.2 66.4303 66.34 65.9203 65.52 65.3603L64.47 68.3603ZM67.48 70.3503L68.36 70.8803L71.33 68.9103C70.65 68.4803 69.94 68.0703 69.2 67.6403C69 67.5203 68.77 67.3902 68.54 67.2502L67.48 70.3503ZM70.51 72.1502L71.51 72.7403L74.28 70.9203C73.91 70.6303 73.54 70.3703 73.17 70.1003C72.68 69.7303 72.15 69.3802 71.61 69.0602L70.51 72.1502ZM73.59 74.0203C73.94 74.2503 74.31 74.4703 74.68 74.7003L77.06 73.1202C76.26 72.4602 75.44 71.8303 74.6 71.1903L73.59 74.0203ZM76.62 75.9403C77.03 76.2103 77.42 76.4703 77.83 76.7603L79.88 75.4103C79.45 75.0603 79.02 74.7303 78.61 74.3903C78.24 74.0803 77.87 73.8003 77.48 73.4903L76.62 75.9403ZM79.55 78.0103C80.02 78.3603 80.39 78.6503 80.76 78.8903L82.69 77.6202C81.89 77.0302 81.11 76.4103 80.35 75.8003L79.55 78.0103ZM82.5 80.1003C82.91 80.3703 83.3 80.6303 83.71 80.8803L85.53 79.6903C84.75 79.1603 83.99 78.6003 83.26 78.0503L82.5 80.1003ZM85.59 81.9903C85.98 82.2203 86.37 82.4203 86.76 82.6303L88.44 81.5203C87.68 81.0903 86.94 80.6202 86.23 80.1502L85.59 81.9903ZM62.18 57.2603C63.25 60.7203 66.99 62.9403 70.64 65.0703C72.09 65.9303 73.61 66.8102 74.9 67.7502C77.19 69.4303 79.2 71.1103 81.17 72.7502C82.5 73.8802 83.85 75.0002 85.33 76.1502C89.49 79.4302 98.22 84.2803 103.87 83.2603C105.49 82.9703 106.74 82.2603 107.66 81.0503C106.84 80.4603 105.71 80.2702 104.57 80.0902C103.98 79.9902 103.38 79.8903 102.83 79.7403C101.31 79.3303 99.94 78.7403 98.34 77.9803C96.56 77.1403 96.15 76.2603 95.76 75.2103C95.68 74.9803 95.6 74.7602 95.47 74.5302C93.73 71.2902 91.82 68.0803 89.96 64.9403L89.76 64.5103L89.68 64.1202C89.07 61.3702 88.43 58.5303 88.72 55.3903C88.74 55.1603 88.78 54.9403 88.8 54.7303C88.82 54.6103 88.84 54.4803 88.86 54.3603C87.77 54.3203 86.69 54.6103 86.38 55.0603C86.32 55.1403 86.15 55.3703 86.48 55.9803L88.49 59.9803L85.19 57.4203C84.41 56.8103 83.61 56.6803 82.67 57.0103C80.11 57.9303 76.81 57.5003 74.45 55.9203C72.38 54.5503 71.17 52.4003 71.03 49.9003C71.01 49.7203 70.95 49.6703 70.89 49.6303C70.54 49.4503 69.74 49.5103 68.96 50.0003C68.82 50.1003 68.67 50.2003 68.51 50.3503C68.14 50.6403 67.65 51.0503 66.67 51.6603C64.65 52.8703 63.28 55.1303 62.18 57.2603ZM88.79 83.6502C89.18 83.8302 89.55 84.0003 89.92 84.1603L91.5 83.1202C90.8 82.8102 90.15 82.4603 89.55 82.1603C89.49 82.1203 89.43 82.1003 89.37 82.0602L88.79 83.6502ZM92.17 85.0203C92.52 85.1403 92.85 85.2702 93.19 85.3702L94.69 84.3903C93.99 84.1403 93.32 83.9003 92.66 83.6303L92.17 85.0203ZM95.71 86.0803C96.08 86.1803 96.45 86.2403 96.82 86.3303L98.17 85.3303C97.49 85.1903 96.82 85.0202 96.16 84.8402L95.71 86.0803ZM103.93 85.6703L103.5 86.8402C105.9 86.6402 107.6 86.0203 107.99 85.2003C108.17 84.8103 108.32 84.3203 108.4 83.7903C107.15 84.8503 105.61 85.4303 103.93 85.6703ZM99.42 86.7803C99.71 86.8203 100.01 86.8403 100.32 86.8603L101.88 85.7703C101.2 85.7703 100.53 85.7103 99.83 85.6303L99.42 86.7803ZM103.07 88.7903C102.56 88.7903 102.09 88.5402 101.78 88.1502C101.78 88.1502 101.78 88.1303 101.76 88.1303L101.17 88.5203C100.86 88.7203 100.51 88.8103 100.15 88.7903C99.7 88.7703 99.25 88.7102 98.78 88.6502C98.33 88.5902 97.92 88.3403 97.67 87.9503L97.61 87.9903C97.26 88.2203 96.83 88.3003 96.4 88.2203C95.91 88.1203 95.4 87.9902 94.88 87.8702C94.47 87.7702 94.12 87.5202 93.9 87.1502C93.53 87.3302 93.08 87.3803 92.67 87.2303C92.18 87.0903 91.69 86.9003 91.17 86.7203C90.82 86.5803 90.53 86.3303 90.35 86.0203C90 86.1203 89.63 86.1003 89.26 85.9603C88.73 85.7303 88.22 85.5103 87.68 85.2403C87.35 85.1003 87.11 84.8503 86.94 84.5602C86.61 84.6003 86.26 84.5602 85.96 84.4002C85.43 84.1102 84.87 83.8303 84.34 83.5203C84.05 83.3603 83.83 83.1102 83.68 82.8402C83.39 82.8802 83.04 82.7802 82.76 82.5902C82.23 82.2602 81.69 81.9103 81.16 81.5503C80.89 81.3903 80.71 81.1403 80.59 80.8503C80.28 80.8303 80 80.7502 79.73 80.5602C79.26 80.2103 78.79 79.8603 78.32 79.5203C77.99 79.2703 77.77 79.0103 77.64 78.7203C77.35 78.7003 77.05 78.6002 76.8 78.4302C76.31 78.0802 75.8 77.7503 75.28 77.4103C74.99 77.2303 74.79 76.9602 74.67 76.6502C74.3 76.6902 74.01 76.5902 73.73 76.4002C73.26 76.0902 72.77 75.7903 72.3 75.5002C71.99 75.3002 71.75 75.0103 71.62 74.7003C71.25 74.7603 70.9 74.6603 70.6 74.4703L69.25 73.6502C68.9 73.4502 68.68 73.1403 68.55 72.7903C68.18 72.8503 67.79 72.7702 67.46 72.5902L66.19 71.8303C65.78 71.5803 65.53 71.1903 65.45 70.7603C65.02 70.8603 64.55 70.7802 64.16 70.5302C63.79 70.2802 63.42 70.0203 63.07 69.7502C62.7 69.4602 62.48 69.0502 62.43 68.6202C62 68.6802 61.57 68.5802 61.2 68.3102L60.16 67.5103C59.77 67.2203 59.57 66.7703 59.55 66.3003C59.1 66.3603 58.61 66.2203 58.24 65.8903C56.46 64.2503 55.56 62.7603 55.39 61.2003C55.1 58.5603 58.05 57.1403 59.63 56.4103L60.63 55.9403C61.82 53.7103 63.33 51.3903 65.55 50.0403C66.43 49.4903 66.88 49.1403 67.21 48.8703C67.46 48.6903 67.64 48.5203 67.87 48.4003C69.16 47.6003 70.66 47.4203 71.68 47.9703C72.38 48.3403 72.81 49.0103 72.85 49.8303C72.97 52.2703 74.3 53.6403 75.41 54.3803C77.25 55.6103 79.94 55.9803 81.93 55.2603C82.75 54.9703 83.55 54.8903 84.33 55.0603C84.39 54.6103 84.58 54.2603 84.74 54.0403C85.62 52.7703 87.67 52.3803 89.23 52.5403C89.74 52.6003 90.13 52.7903 90.4 53.1303C90.85 53.7003 90.73 54.4203 90.63 55.0603C90.61 55.2403 90.57 55.4303 90.55 55.6103C90.28 58.4403 90.88 61.1203 91.47 63.7403L91.53 63.9903C93.46 67.2503 95.36 70.4402 97.1 73.6802C97.26 74.0102 97.39 74.3202 97.49 74.6202C97.74 75.3202 97.88 75.7303 99.09 76.3003C100.59 77.0203 101.88 77.5703 103.25 77.9403C103.76 78.0803 104.29 78.1702 104.83 78.2502C106.24 78.5002 107.8 78.7403 109.03 79.7903L109.54 78.9103L110.18 81.0203C110.59 82.3703 110.36 84.6503 109.67 86.0803C108.73 88.0703 105.59 88.6603 103.13 88.8303C103.13 88.7703 103.11 88.7903 103.07 88.7903Z" fill="#26648F"/>
<path d="M85.0793 85.6901L41.9993 73.8501L41.2393 76.9301L85.0793 85.6901Z" fill="#26648F"/>
<path d="M92.9292 88.2102L52.0992 81.9902L51.9092 84.8102L92.9292 88.2102Z" fill="#26648F"/>
<path d="M117.35 95.2402H33.3496V102.35H117.35V95.2402Z" fill="#26648F"/>
</g>
<defs>
<clipPath id="clip0_0_15593">
<rect width="150" height="150" fill="white"/>
</clipPath>
</defs>
</svg>
