<svg width="150" height="150" viewBox="0 0 150 150" fill="none" xmlns="http://www.w3.org/2000/svg">
<path d="M75 150C33.64 150 0 116.36 0 75C0 33.64 33.64 0 75 0C116.36 0 150 33.64 150 75C150 116.36 116.36 150 75 150ZM75 4C35.85 4 4 35.85 4 75C4 114.15 35.85 146 75 146C114.15 146 146 114.15 146 75C146 35.85 114.15 4 75 4Z" fill="#26648F"/>
<path d="M37.2652 35.9827C34.8272 36.6047 33.2722 38.9907 33.7562 41.3077C34.0842 42.7767 34.5172 43.3307 40.3942 49.4847C41.1552 50.2967 42.3302 51.5417 42.9872 52.2507C47.9662 57.6447 53.3592 63.0557 55.0712 64.3867C57.1452 66.0117 58.3382 66.5817 61.2432 67.3947C64.1472 68.1897 66.0662 70.6967 65.5302 73.0307C65.2192 74.4487 64.5792 75.7967 63.3352 77.7157L62.5572 78.9087L63.1452 79.5307C64.5972 81.0697 66.8102 83.1957 68.0552 84.2327C68.6252 84.7167 71.0982 86.8607 71.2362 86.9987C71.2882 87.0507 72.0662 87.7417 72.9652 88.5547C73.8642 89.3677 74.7282 90.1447 74.8672 90.2837C75.0052 90.4217 76.1812 91.5107 77.4602 92.7037C78.7392 93.8967 80.2262 95.2627 80.7452 95.7467C81.2642 96.2477 81.9722 96.8707 82.3012 97.1297C82.6292 97.4067 82.9412 97.6657 82.9922 97.7177C83.1992 97.9767 86.0172 100.138 87.2272 101.003C87.9532 101.522 89.2322 102.455 90.0452 103.043C91.7562 104.322 94.2462 106.016 95.2142 106.552C96.6322 107.364 97.2882 107.71 98.1182 108.142C99.1382 108.678 101.368 109.715 102.094 109.992C105.794 111.444 111.187 113.19 113.331 113.622C113.901 113.726 114.679 113.899 115.077 114.002C115.475 114.088 115.976 114.14 116.183 114.106C116.615 114.054 116.926 114.383 104.946 102.126C102.906 100.034 99.7942 96.8527 98.0312 95.0377C92.7762 89.6437 87.7802 84.5267 84.3742 81.0347C78.1512 74.6727 73.5352 69.9367 70.3712 66.6857C68.6082 64.8877 65.6172 61.8107 63.6982 59.8567C61.7962 57.9037 58.6852 54.7227 56.7832 52.7687C54.8992 50.8157 51.7872 47.6347 49.8682 45.6807C47.9662 43.7277 45.2182 40.9267 43.7662 39.4397C42.3142 37.9527 40.8102 36.5697 40.4302 36.3627C39.6512 35.9477 38.0952 35.7577 37.2652 35.9827ZM39.6162 38.9387C40.3422 39.3367 40.7222 40.9267 40.2382 41.5317C39.8752 41.9987 38.9592 42.5687 38.5782 42.5687C38.3712 42.5687 38.0422 42.4647 37.8172 42.3437C36.5552 41.6347 36.2612 40.2697 37.1602 39.3007C37.5752 38.8517 37.7822 38.7647 38.4742 38.7647C38.9082 38.7657 39.4262 38.8517 39.6162 38.9387Z" fill="#26648F"/>
</svg>
