<svg width="150" height="150" viewBox="0 0 150 150" fill="none" xmlns="http://www.w3.org/2000/svg">
<path d="M75 150C33.64 150 0 116.36 0 75C0 33.64 33.64 0 75 0C116.36 0 150 33.64 150 75C150 116.36 116.36 150 75 150ZM75 4C35.85 4 4 35.85 4 75C4 114.15 35.85 146 75 146C114.15 146 146 114.15 146 75C146 35.85 114.15 4 75 4Z" fill="#26648F"/>
<path d="M80.0199 65.8402C80.1599 66.0902 79.6899 66.6602 78.8499 67.3202C82.1499 67.4402 84.6699 68.0402 84.6499 68.7502C84.6499 69.4702 82.1499 70.0602 78.8299 70.1802C79.6699 70.8602 80.1399 71.4102 79.9999 71.6802C79.8599 71.9302 79.1399 71.8002 78.1399 71.4102C79.6799 74.3402 80.4299 76.8202 79.8199 77.1702C79.2099 77.5202 77.44 75.6502 75.68 72.8502C75.52 73.9202 75.2699 74.5902 74.9799 74.5902C74.6899 74.5902 74.4499 73.8902 74.2799 72.8502C72.5199 75.6602 70.7599 77.5402 70.1399 77.1702C69.5299 76.8202 70.2599 74.3402 71.8199 71.4102C70.8399 71.8002 70.0999 71.9202 69.9599 71.6802C69.8199 71.4402 70.2899 70.8602 71.1299 70.2002C67.8299 70.0802 65.31 69.4802 65.31 68.7702C65.31 68.0502 67.8099 67.4602 71.1299 67.3402C70.2899 66.6802 69.8199 66.1102 69.9599 65.8602C70.0999 65.6102 70.8199 65.7402 71.8199 66.1302C70.2799 63.2002 69.5499 60.7202 70.1599 60.3702C70.7699 60.0202 72.54 61.8902 74.3 64.6902C74.46 63.6202 74.7099 62.9502 74.9999 62.9502C75.2899 62.9502 75.5499 63.6502 75.6999 64.6902C77.4599 61.8802 79.2199 60.0002 79.8399 60.3702C80.4499 60.7202 79.7199 63.2002 78.1599 66.1302C79.1599 65.7202 79.8799 65.6002 80.0199 65.8402ZM61.5799 75.4102L67.42 73.1602L62.5399 77.0902L59.9599 77.4602L61.5799 75.4102ZM90.0399 60.0402L88.42 62.0902L82.5799 64.3402L87.44 60.4102L90.0399 60.0402ZM74.0399 83.7502L74.9999 77.5602L75.9599 83.7502L74.9999 86.1702L74.0399 83.7502ZM87.4599 77.0902L82.5999 73.1602L88.44 75.4102L90.06 77.4602L87.4599 77.0902ZM59.9599 60.0402L62.5399 60.4102L67.42 64.3402L61.5799 62.0902L59.9599 60.0402ZM65.93 60.2302L67.4099 64.3702L64.7699 60.9102L64.4999 59.1102L65.93 60.2302ZM61.4199 64.4702L63.0999 63.7902L67.3999 64.3602L63.0999 65.1402L61.4199 64.4702ZM88.5899 73.0302L86.9099 73.7102L82.6099 73.1402L86.9099 72.3602L88.5899 73.0302ZM84.06 77.2702L82.5799 73.1302L85.2199 76.5902L85.4899 78.3902L84.06 77.2702ZM64.4899 78.4002L64.7599 76.6002L67.3999 73.1402L65.92 77.2802L64.4899 78.4002ZM63.0999 72.3602L67.3999 73.1402L63.0999 73.7102L61.4199 73.0302L63.0999 72.3602ZM86.9099 65.1502L82.6099 64.3702L86.9099 63.8002L88.5899 64.4802L86.9099 65.1502ZM85.4899 59.1002L85.2199 60.9002L82.5999 64.3402L84.0799 60.2002L85.4899 59.1002ZM78.0999 82.7002L76.67 81.5702L75.0099 77.5502L77.8399 80.8902L78.0999 82.7002ZM72.18 80.9002L75.0099 77.5602L73.3499 81.5802L71.92 82.7102L72.18 80.9002ZM77.8299 56.6002L74.9999 59.9602L76.6599 55.9402L78.0899 54.8102L77.8299 56.6002ZM71.9099 54.8002L73.3399 55.9302L74.9999 59.9502L72.17 56.6102L71.9099 54.8002ZM74.9999 51.3402L75.9599 53.7602L74.9999 59.9502L74.0399 53.7602L74.9999 51.3402ZM88.8299 74.7102C90.6899 74.1802 91.0199 72.4202 89.2199 71.4902C87.7399 70.6302 85.9399 72.2502 84.1599 71.4902C84.1599 71.4902 85.8199 69.6702 84.9599 68.8902C84.8999 68.8302 84.8199 68.7902 84.7599 68.7502C84.8399 68.7102 84.8999 68.6702 84.9599 68.6102C85.8199 67.8302 84.1599 66.0102 84.1599 66.0102C85.9399 65.2502 87.7499 66.8702 89.2199 66.0102C91.0399 65.0902 90.6999 63.3302 88.8299 62.7902C90.4499 61.9902 92.6199 60.6802 91.6999 59.0802C90.7799 57.4602 88.57 58.6902 87.05 59.7202C87.54 57.8402 86.1699 56.6502 84.4699 57.7702C82.9899 58.6302 83.4899 60.9902 81.9499 62.1502C81.9499 62.1502 81.1899 59.7902 80.1099 60.1602C80.0299 60.1802 79.9499 60.2202 79.8599 60.2802C79.8599 60.2002 79.8599 60.1002 79.8399 60.0102C79.6099 58.8802 77.1999 59.4002 77.1999 59.4002C77.4299 57.4702 79.7199 56.7202 79.7199 55.0202C79.8399 52.9702 78.1399 52.3802 76.7499 53.7502C76.8699 51.9502 76.8299 49.4102 74.9899 49.4102C73.1499 49.4102 73.0799 51.9502 73.2099 53.7502C71.8199 52.3802 70.1199 52.9902 70.2399 55.0202C70.2399 56.7202 72.5299 57.4802 72.7599 59.4002C72.7599 59.4002 70.3599 58.8702 70.1199 60.0102C70.0999 60.0902 70.0999 60.1702 70.0999 60.2802C70.0199 60.2402 69.9599 60.2002 69.8499 60.1602C68.7599 59.7902 68.0099 62.1502 68.0099 62.1502C66.4499 60.9802 66.9399 58.6102 65.4899 57.7702C63.7899 56.6402 62.4399 57.8302 62.9099 59.7202C61.3899 58.7202 59.1799 57.4902 58.2599 59.0802C57.3399 60.6802 59.5099 61.9902 61.1299 62.7902C59.2699 63.3002 58.9199 65.0802 60.7399 66.0102C62.2199 66.8702 64.02 65.2502 65.8 66.0102C65.8 66.0102 64.1399 67.8302 64.9999 68.6102C65.0599 68.6702 65.1399 68.7102 65.2299 68.7502C65.1499 68.7902 65.0899 68.8302 64.9999 68.8902C64.1399 69.6702 65.8 71.4902 65.8 71.4902C64.02 72.2502 62.2099 70.6302 60.7399 71.4902C58.9199 72.4102 59.2599 74.1702 61.1299 74.7102C59.4899 75.5102 57.3199 76.8202 58.2599 78.4202C59.1799 80.0202 61.3899 78.7902 62.9099 77.7802C62.4199 79.6602 63.7699 80.8302 65.4899 79.7302C66.9699 78.8702 66.4699 76.5102 68.0099 75.3502C68.0099 75.3502 68.7499 77.7102 69.8499 77.3402C69.9299 77.3202 70.0099 77.2802 70.0999 77.2202C70.0999 77.3002 70.0999 77.4002 70.1199 77.4902C70.3699 78.6202 72.7599 78.1002 72.7599 78.1002C72.5299 80.0302 70.2399 80.7802 70.2399 82.4802C70.1199 84.5302 71.8199 85.1202 73.2099 83.7502C73.0899 85.5502 73.1299 88.0902 74.9899 88.0902C76.8299 88.0902 76.8699 85.5502 76.7499 83.7502C78.1399 85.1202 79.8399 84.5302 79.7199 82.4802C79.7199 80.7802 77.4299 80.0202 77.1999 78.1002C77.1999 78.1002 79.6199 78.6302 79.8399 77.4902C79.8599 77.4102 79.8599 77.3302 79.8599 77.2202C79.9399 77.2602 79.9999 77.3002 80.1099 77.3402C81.1999 77.7102 81.9499 75.3502 81.9499 75.3502C83.5099 76.5202 82.9899 78.8702 84.4699 79.7302C86.1699 80.8602 87.54 79.6702 87.05 77.7802C88.57 78.7802 90.7799 80.0102 91.6999 78.4202C92.6399 76.8202 90.4699 75.5102 88.8299 74.7102Z" fill="#26648F"/>
<path d="M78.9 68.7098C78.9 68.8898 78.43 69.0798 77.73 69.1798C79.61 70.3498 80.86 71.5398 80.62 71.9498C80.38 72.3598 78.74 71.8698 76.77 70.8398C77.04 71.4998 77.1199 71.9898 76.9499 72.0898C76.7799 72.1898 76.42 71.8598 75.97 71.3098C75.89 73.5198 75.5 75.1798 75.03 75.1798C74.56 75.1798 74.1499 73.5198 74.0699 71.3098C73.6199 71.8598 73.25 72.1698 73.09 72.0898C72.93 71.9898 73.01 71.5198 73.27 70.8398C71.3 71.8598 69.66 72.3598 69.42 71.9498C69.17 71.5398 70.4401 70.3698 72.3101 69.1998C71.5901 69.0998 71.14 68.9098 71.14 68.7298C71.14 68.5498 71.6101 68.3598 72.3101 68.2598C70.4501 67.0898 69.18 65.8998 69.42 65.5098C69.67 65.0998 71.3 65.5898 73.27 66.6198C73 65.9598 72.92 65.4698 73.09 65.3698C73.26 65.2698 73.6399 65.5998 74.0699 66.1498C74.1499 63.9398 74.54 62.2798 75.03 62.2798C75.5 62.2798 75.89 63.9398 75.97 66.1498C76.42 65.5998 76.7899 65.2898 76.9499 65.3698C77.1099 65.4698 77.03 65.9398 76.77 66.6198C78.74 65.5998 80.38 65.0798 80.62 65.5098C80.87 65.9198 79.6 67.0898 77.73 68.2598C78.42 68.3598 78.9 68.5298 78.9 68.7098Z" fill="#26648F"/>
<path d="M117 93.48H33V100.59H117V93.48Z" fill="#26648F"/>
</svg>
