<svg width="150" height="150" viewBox="0 0 150 150" fill="none" xmlns="http://www.w3.org/2000/svg">
<path d="M75.1699 150C33.8099 150 0.169922 116.36 0.169922 75C0.169922 33.64 33.8099 0 75.1699 0C116.53 0 150.17 33.64 150.17 75C150.17 116.36 116.53 150 75.1699 150ZM75.1699 4C36.0199 4 4.16992 35.85 4.16992 75C4.16992 114.15 36.0199 146 75.1699 146C114.32 146 146.17 114.15 146.17 75C146.17 35.85 114.32 4 75.1699 4Z" fill="#26648F"/>
<path d="M74.2898 39.012C73.6398 39.405 69.1778 43.791 66.6518 46.499C63.7178 49.66 63.5058 49.887 62.6138 50.961C62.1598 51.506 61.7368 51.974 61.6908 52.02C61.4488 52.232 58.3328 56.043 57.5468 57.087C57.0478 57.752 56.5638 58.403 56.4578 58.524C55.1878 60.127 50.9678 66.359 50.9678 66.616C50.9678 66.646 50.6958 67.1 50.3628 67.66C49.6978 68.749 47.6708 72.893 47.1868 74.179C46.2638 76.538 45.9318 77.658 45.3718 80.229C45.3118 80.562 45.1598 81.56 45.0538 82.467C44.6298 86.067 45.7038 90.135 47.9578 93.508C50.8168 97.728 56.3828 102.432 62.4628 105.759C62.9168 106.016 63.4608 106.334 63.6728 106.47C64.0358 106.712 69.0418 109.192 70.4788 109.828C71.1138 110.115 71.2958 110.191 72.1878 110.539C72.7478 110.751 73.4128 111.038 73.6848 111.174C74.1688 111.416 75.3638 111.325 75.8928 111.008C76.1648 110.842 76.4678 110.706 76.5888 110.706C76.8158 110.706 78.1918 110.162 80.3848 109.194C82.4868 108.271 88.4468 105.216 89.2328 104.657C89.4748 104.491 89.7018 104.355 89.7618 104.355C89.8068 104.355 90.2608 104.083 90.7598 103.75C91.2588 103.417 91.7128 103.145 91.7428 103.145C91.8638 103.145 94.4808 101.27 95.7958 100.241C100.651 96.46 103.767 92.346 104.826 88.323C105.552 85.601 105.567 82.818 104.902 79.702C104.388 77.237 103.768 75.286 102.769 72.971C102.194 71.64 101.741 70.642 101.468 70.097C100.394 68.025 99.5618 66.543 99.1988 65.983C98.9568 65.635 98.7598 65.318 98.7598 65.257C98.7598 65.136 95.4478 60.13 94.5858 58.965C93.5878 57.619 92.6648 56.379 92.4528 56.106C90.7138 53.898 89.4128 52.295 89.0348 51.871C88.7628 51.568 88.1728 50.888 87.7188 50.359C87.2648 49.814 86.8568 49.346 86.8118 49.3C86.7668 49.255 86.4638 48.922 86.1458 48.544C83.3628 45.353 77.8878 39.726 76.9948 39.151C76.1498 38.604 75.0608 38.543 74.2898 39.012ZM77.2088 45.395C79.5528 47.785 81.4738 49.872 83.3348 52.02C83.8788 52.64 84.3478 53.185 84.3938 53.23C84.4388 53.275 85.0138 53.956 85.6648 54.742C86.3148 55.528 86.9958 56.345 87.1768 56.557C89.4458 59.279 92.8028 64.014 94.7548 67.22C95.9648 69.216 98.0368 73.209 98.5968 74.631C98.6728 74.797 98.7938 75.1 98.8838 75.312C99.0808 75.766 99.8668 78.186 100.094 79.018C100.563 80.803 100.654 81.574 100.639 84.009C100.624 86.913 100.458 87.684 99.3228 89.832C97.3718 93.538 92.9098 97.636 86.9658 101.176C84.7428 102.507 78.0878 105.865 77.6938 105.865C77.6338 105.865 77.5878 103.4 77.5878 100.375V94.885L79.2968 92.994C80.2198 91.95 82.0498 89.924 83.3348 88.472C84.6208 87.035 85.7548 85.78 85.8308 85.689C86.8288 84.585 86.9648 84.358 86.9648 83.768C86.9648 82.982 86.5108 82.316 85.6948 81.953C84.9538 81.62 84.4548 81.59 83.7738 81.877C83.2138 82.104 82.5788 82.754 79.7358 85.93C78.7068 87.079 77.7998 88.017 77.7238 88.017C77.5578 88.017 77.5268 76.567 77.7088 76.492C77.7688 76.462 78.3288 75.872 78.9488 75.161C79.5688 74.45 80.1888 73.77 80.3098 73.649C80.6578 73.316 84.3028 69.248 85.7248 67.629C86.8738 66.313 86.9648 66.162 86.9648 65.557C86.9648 64.771 86.4658 64.075 85.6488 63.742C84.3178 63.182 83.4408 63.621 81.4288 65.875C80.6118 66.798 79.4628 68.068 78.8878 68.703C78.3278 69.338 77.7988 69.868 77.7228 69.868C77.6468 69.868 77.5868 66.858 77.5868 62.774C77.5868 57.889 77.5268 55.529 77.4208 55.181C76.8308 53.442 74.6378 52.988 73.3518 54.364L72.9738 54.772L72.9288 62.546C72.8988 68.551 72.8528 70.32 72.7018 70.32C72.6108 70.32 72.2778 69.987 71.9908 69.594C71.7038 69.201 70.8108 68.066 70.0248 67.068C69.2388 66.07 68.3458 64.935 68.0588 64.557C67.4388 63.74 66.7888 63.271 66.0628 63.135C64.7168 62.878 63.3708 63.861 63.3708 65.071C63.3708 65.812 63.2048 65.585 68.2108 71.892C69.0878 72.996 69.9648 74.13 70.1768 74.403C71.2958 75.885 72.3248 77.11 72.5208 77.186C72.7178 77.262 72.7478 78.033 72.7478 82.873C72.7478 85.943 72.7028 88.469 72.6418 88.469C72.5658 88.454 71.7798 87.501 70.8568 86.336C66.7578 81.088 67.0458 81.36 65.5628 81.36C64.6098 81.36 64.5648 81.375 63.9748 81.965C63.4608 82.479 63.3698 82.661 63.3698 83.205C63.3698 83.931 63.5968 84.249 67.3778 89.013C68.0438 89.845 68.7538 90.767 68.9658 91.04C70.2368 92.719 72.3238 95.26 72.5198 95.335C72.7168 95.411 72.7468 96.167 72.7468 100.78C72.7468 103.729 72.7018 106.18 72.6408 106.21C72.5648 106.255 71.9148 105.998 71.1588 105.635C70.4178 105.272 69.5258 104.849 69.1928 104.697C64.5948 102.489 59.3618 99.101 56.1858 96.272C54.7188 94.971 54.8698 95.123 53.7658 93.837C52.3138 92.158 51.9508 91.644 50.9828 89.905C50.6348 89.3 50.1208 87.939 49.9238 87.107C49.1528 83.885 49.6368 80.074 51.4208 75.612C52.3438 73.268 54.2638 69.532 55.1868 68.216C55.3678 67.974 55.5048 67.732 55.5048 67.687C55.5048 67.626 56.1858 66.568 57.0328 65.297C59.3918 61.773 62.9618 57.13 65.6238 54.135C66.1078 53.591 66.6978 52.91 66.9398 52.623C67.1818 52.336 67.4688 51.988 67.6048 51.867C67.7258 51.746 68.6178 50.793 69.5708 49.75C72.0208 47.103 75.3028 43.851 75.5148 43.851C75.6208 43.852 76.3768 44.548 77.2088 45.395Z" fill="#26648F"/>
</svg>
