<svg width="17" height="17" viewBox="0 0 17 17" fill="none" xmlns="http://www.w3.org/2000/svg">
<path fill-rule="evenodd" clip-rule="evenodd" d="M9.30256 4.41685L5.2297 0.907679C4.90518 0.629731 4.39551 0.629733 4.07099 0.90768L0 4.41524L1.22523 5.47839L3.80361 3.25267V16.2983H5.49165V3.25186L8.06882 5.47235L9.30256 4.41685ZM4.10361 15.9977V15.9983H5.19165V2.59738L8.06951 5.07695L8.84202 4.41605L8.84158 4.41567L8.06933 5.07635L5.19147 2.59679V15.9977H4.10361ZM0.45893 4.41582L0.458674 4.41605L1.22574 5.08164L4.10343 2.59754V2.59679L1.22556 5.08104L0.45893 4.41582ZM16.9184 12.5828L15.6861 11.5211L13.1084 13.7462V0.700597H11.4204V13.747L8.84251 11.5259L7.61584 12.5828L11.6884 16.0918C12.013 16.3697 12.522 16.3692 12.8465 16.0912L16.9184 12.5828ZM16.4584 12.5825L12.6505 15.8633C12.4383 16.0451 12.0956 16.0451 11.8834 15.8633L8.0757 12.5826L8.07545 12.5828L11.8836 15.8639C12.0958 16.0457 12.4385 16.0457 12.6507 15.8639L16.4588 12.5828L16.4584 12.5825ZM12.8084 14.4008V1.0006H12.8082V14.4009L12.8084 14.4008Z" fill="black"/>
</svg>
