<svg width="75" height="69" viewBox="0 0 75 69" fill="none" xmlns="http://www.w3.org/2000/svg">
<path d="M58.9582 52.5175H28.9722L27.1189 45.1494H66.3064L74.7094 11.7421H18.7158L15.7623 0H0V4.37386H12.3263L24.48 52.6921C20.9419 53.4472 18.2812 56.5788 18.2812 60.3176C18.2812 64.6185 21.8017 68.1175 26.1291 68.1175C30.4566 68.1175 33.9771 64.6183 33.9771 60.3176C33.9771 59.0889 33.6889 57.9262 33.1775 56.8913H51.9098C51.3984 57.9262 51.1102 59.0889 51.1102 60.3176C51.1102 64.6185 54.6309 68.1175 58.9582 68.1175C63.2855 68.1175 66.8062 64.6183 66.8062 60.3176C66.806 56.0167 63.2853 52.5175 58.9582 52.5175ZM19.8159 16.1159H69.073L62.8702 40.7754H26.0187L19.8159 16.1159ZM26.1291 63.7437C24.2283 63.7437 22.6819 62.2067 22.6819 60.3176C22.6819 58.4283 24.2283 56.8913 26.1291 56.8913C28.03 56.8913 29.5764 58.4283 29.5764 60.3176C29.5764 62.2067 28.03 63.7437 26.1291 63.7437ZM58.9582 63.7437C57.0573 63.7437 55.5109 62.2067 55.5109 60.3176C55.5109 58.4283 57.0573 56.8913 58.9582 56.8913C60.859 56.8913 62.4055 58.4283 62.4055 60.3176C62.4052 62.2067 60.8589 63.7437 58.9582 63.7437Z" fill="#5F768C"/>
</svg>
