<svg width="41" height="40" viewBox="0 0 41 40" fill="none" xmlns="http://www.w3.org/2000/svg">
<g clip-path="url(#clip0_0_16555)">
<path d="M20.4375 40C9.40817 40 0.4375 31.0267 0.4375 20C0.4375 8.97333 9.40817 0 20.4375 0C31.4668 0 40.4375 8.97333 40.4375 20C40.4375 31.0267 31.4668 40 20.4375 40ZM20.4375 1.06667C9.9975 1.06667 1.50417 9.56 1.50417 20C1.50417 30.44 9.9975 38.9333 20.4375 38.9333C30.8775 38.9333 39.3708 30.44 39.3708 20C39.3708 9.56 30.8775 1.06667 20.4375 1.06667Z" fill="#24638E"/>
<path d="M27.6305 31.4453H26.9319V32.5333H25.5852V31.4453H22.4492V30.12L25.0785 24.8613H26.6065L23.9799 30.12H25.5852V28.688H26.9319V30.12H27.6305V31.4453Z" fill="#24638E"/>
<path d="M27.3947 20.5628C27.3947 20.8802 27.136 21.1388 26.8187 21.1388H24.1307C23.8107 21.1388 23.5547 20.8802 23.5547 20.5628V17.8748C23.5547 17.5575 23.8107 17.2988 24.1307 17.2988H26.8187C27.136 17.2988 27.3947 17.5575 27.3947 17.8748V20.5628Z" fill="#24638E"/>
<path d="M27.3947 10.7301C27.3947 11.0501 27.136 11.3061 26.8187 11.3061H24.1307C23.8107 11.3061 23.5547 11.0501 23.5547 10.7301V8.04475C23.5547 7.72742 23.8107 7.46875 24.1307 7.46875H26.8187C27.136 7.46875 27.3947 7.72742 27.3947 8.04475V10.7301Z" fill="#24638E"/>
<path d="M22.4416 15.5824C22.4416 15.8997 22.1856 16.1584 21.8656 16.1584H19.1776C18.8602 16.1584 18.6016 15.8997 18.6016 15.5824V12.8944C18.6016 12.577 18.8602 12.3184 19.1776 12.3184H21.8656C22.1856 12.3184 22.4416 12.577 22.4416 12.8944V15.5824Z" fill="#24638E"/>
<path d="M17.8781 24.8613H19.4408L16.8994 32.5333H15.7768L13.2461 24.8613H14.7981L16.3394 29.8613L17.8781 24.8613Z" fill="#24638E"/>
<path d="M17.6252 20.5628C17.6252 20.8802 17.3665 21.1388 17.0492 21.1388H14.3612C14.0412 21.1388 13.7852 20.8802 13.7852 20.5628V17.8748C13.7852 17.5575 14.0412 17.2988 14.3612 17.2988H17.0492C17.3665 17.2988 17.6252 17.5575 17.6252 17.8748V20.5628Z" fill="#24638E"/>
<path d="M21.5975 30.9395H19.9922V32.5341H21.5975V30.9395Z" fill="#24638E"/>
</g>
<defs>
<clipPath id="clip0_0_16555">
<rect width="40" height="40" fill="white" transform="translate(0.4375)"/>
</clipPath>
</defs>
</svg>
