<svg width="41" height="40" viewBox="0 0 41 40" fill="none" xmlns="http://www.w3.org/2000/svg">
<path d="M20.7813 40C9.75192 40 0.78125 31.0267 0.78125 20C0.78125 8.97333 9.75192 0 20.7813 0C31.8106 0 40.7812 8.97333 40.7812 20C40.7812 31.0267 31.8079 40 20.7813 40ZM20.7813 1.06667C10.3413 1.06667 1.84792 9.56 1.84792 20C1.84792 30.44 10.3413 38.9333 20.7813 38.9333C31.2213 38.9333 39.7146 30.44 39.7146 20C39.7146 9.56 31.2213 1.06667 20.7813 1.06667Z" fill="#24638E"/>
<path d="M7.86328 25.1634V14.8301H10.5833L12.7219 18.6167C13.3353 19.7021 13.9406 20.9954 14.4019 22.1554H14.4473C14.2953 20.7901 14.2473 19.3954 14.2473 17.8487V14.8301H16.3886V25.1634H13.9486L11.7486 21.1767C11.1353 20.0701 10.4686 18.7367 9.96194 17.5314L9.91394 17.5447C9.97528 18.9101 10.0073 20.3634 10.0073 22.0514V25.1661L7.86328 25.1634Z" fill="#24638E"/>
<path d="M18.2281 21.9044H19.0334C19.8787 21.9044 20.4121 21.4377 20.4121 20.7364C20.4121 19.9444 19.8387 19.595 19.0067 19.5897C18.6281 19.5897 18.3534 19.6297 18.2281 19.6644V21.9044ZM17.4414 19.1097C17.8414 19.0297 18.4147 18.9844 18.9561 18.9844C19.8014 18.9844 20.3427 19.1364 20.7214 19.4857C21.0281 19.7604 21.2014 20.179 21.2014 20.651C21.2014 21.459 20.6947 21.9977 20.0467 22.219V22.2457C20.5214 22.411 20.8014 22.8457 20.9481 23.4857C21.1481 24.339 21.2947 24.9337 21.4227 25.171H20.6094C20.5081 24.9977 20.3747 24.4724 20.2041 23.7044C20.0254 22.8564 19.6974 22.5364 18.9774 22.5124H18.2307V25.171H17.4441V19.1097H17.4414Z" fill="#24638E"/>
<path d="M28.6135 25.063C25.8189 25.063 23.5469 22.7884 23.5469 19.9964C23.5469 17.2044 25.8189 14.9297 28.6135 14.9297C31.4082 14.9297 33.6802 17.2044 33.6802 19.9964C33.6802 22.7884 31.4082 25.063 28.6135 25.063ZM28.6135 15.7297C26.2615 15.7297 24.3469 17.6444 24.3469 19.9964C24.3469 22.3484 26.2615 24.263 28.6135 24.263C30.9682 24.263 32.8802 22.3484 32.8802 19.9964C32.8802 17.6444 30.9682 15.7297 28.6135 15.7297Z" fill="#24638E"/>
</svg>
