<svg width="41" height="40" viewBox="0 0 41 40" fill="none" xmlns="http://www.w3.org/2000/svg">
<path d="M20.3438 40C9.31442 40 0.34375 31.0267 0.34375 20C0.34375 8.97333 9.31442 0 20.3438 0C31.3731 0 40.3438 8.97333 40.3438 20C40.3438 31.0267 31.3731 40 20.3438 40ZM20.3438 1.06667C9.90375 1.06667 1.41042 9.56 1.41042 20C1.41042 30.44 9.90375 38.9333 20.3438 38.9333C30.7838 38.9333 39.2771 30.44 39.2771 20C39.2771 9.56 30.7838 1.06667 20.3438 1.06667Z" fill="#24638E"/>
<path d="M20.398 15.252C17.83 15.252 15.75 17.348 15.75 19.9293C15.75 22.5133 17.83 24.6066 20.398 24.6066C22.9633 24.6066 25.046 22.5133 25.046 19.9293C25.046 17.348 22.9633 15.252 20.398 15.252ZM20.6007 23.5106C18.6193 23.5106 17.1313 21.988 17.1313 20.0413C17.1313 18.0386 18.6193 16.4786 20.6007 16.4786V23.5106Z" fill="#24638E"/>
<path d="M30.1681 21.3799H26.8561L26.7947 21.3585C26.4774 21.2519 25.9414 20.8412 25.9414 19.9745C25.9414 19.0892 26.5307 18.7079 26.8401 18.6279L26.9387 18.6172L30.2241 18.6305C30.5441 18.7159 31.1467 19.1105 31.1467 20.0065C31.1467 20.9079 30.5387 21.2919 30.2161 21.3692L30.1681 21.3799ZM27.0081 20.5799H30.0561C30.1414 20.5425 30.3441 20.4092 30.3441 20.0065C30.3441 19.6065 30.1441 19.4625 30.0481 19.4172H27.0054C26.9254 19.4545 26.7414 19.5852 26.7414 19.9745C26.7414 20.3692 26.9254 20.5292 27.0081 20.5799Z" fill="#24638E"/>
<path d="M25.3519 16.4825C25.0373 16.4825 24.6479 16.3678 24.2826 15.9998C23.6613 15.3731 23.8053 14.6878 23.9706 14.4105L24.0293 14.3331L26.3626 12.0051C26.6479 11.8371 27.3546 11.6878 27.9839 12.3225C28.6186 12.9598 28.4559 13.6638 28.2826 13.9465L28.2266 14.0185L25.9199 16.3411L25.8613 16.3705C25.7413 16.4318 25.5626 16.4825 25.3519 16.4825ZM24.6453 14.8505C24.6159 14.9331 24.5759 15.1598 24.8506 15.4371C25.1253 15.7145 25.3653 15.6931 25.4586 15.6718L27.6133 13.5038C27.6506 13.4105 27.6986 13.1705 27.4186 12.8878C27.1333 12.5998 26.8879 12.6505 26.8026 12.6825L24.6453 14.8505Z" fill="#24638E"/>
<path d="M20.3286 14.3655C19.4459 14.3655 19.0646 13.7762 18.9872 13.4615L18.9766 13.3655L18.9899 10.0589C19.0726 9.73886 19.4672 9.13086 20.3579 9.13086C21.2566 9.13086 21.6379 9.74419 21.7126 10.0669L21.7232 10.1575V13.4429L21.7019 13.5042C21.6006 13.8242 21.1899 14.3655 20.3286 14.3655ZM19.7766 13.2989C19.8139 13.3789 19.9446 13.5655 20.3286 13.5655C20.7126 13.5655 20.8699 13.3869 20.9232 13.2935V10.2242C20.8859 10.1389 20.7579 9.93353 20.3579 9.93353C19.9499 9.93353 19.8139 10.1469 19.7766 10.2295V13.2989Z" fill="#24638E"/>
<path d="M15.3589 16.4733C15.1029 16.4733 14.8869 16.3959 14.7562 16.3159L14.6842 16.2573L12.3775 13.9346L12.3482 13.8759C12.1989 13.5773 12.1082 12.9053 12.7189 12.2946C13.3429 11.6653 14.0282 11.8146 14.3029 11.9799L14.3802 12.0413L16.6922 14.3879C16.8575 14.6733 17.0069 15.3826 16.3802 16.0146C16.0309 16.3639 15.6655 16.4733 15.3589 16.4733ZM15.2069 15.6493C15.2922 15.6839 15.5295 15.7346 15.8095 15.4519C16.0922 15.1666 16.0469 14.9213 16.0122 14.8226L13.8602 12.6546C13.7802 12.6253 13.5589 12.5879 13.2869 12.8599C13.0095 13.1399 13.0282 13.3853 13.0522 13.4786L15.2069 15.6493Z" fill="#24638E"/>
<path d="M13.7709 21.3845H10.4615L10.4002 21.3631C10.0829 21.2565 9.54688 20.8458 9.54688 19.9791C9.54688 19.0938 10.1335 18.7125 10.4455 18.6325L10.5442 18.6191L13.8295 18.6325C14.1495 18.7178 14.7522 19.1125 14.7522 20.0085C14.7522 20.9098 14.1415 21.2938 13.8189 21.3711L13.7709 21.3845ZM10.6135 20.5845H13.6615C13.7469 20.5471 13.9522 20.4138 13.9522 20.0111C13.9522 19.6111 13.7495 19.4671 13.6535 19.4218H10.6135C10.5255 19.4645 10.3469 19.5978 10.3469 19.9791C10.3442 20.3738 10.5309 20.5338 10.6135 20.5845Z" fill="#24638E"/>
<path d="M13.7582 28.1428C13.4409 28.1428 13.0542 28.0281 12.6889 27.6601C12.0675 27.0334 12.2115 26.3481 12.3769 26.0734L12.4355 25.9961L14.7689 23.6681C15.0542 23.5001 15.7609 23.3481 16.3929 23.9854C17.0275 24.6228 16.8649 25.3241 16.6915 25.6068L16.6355 25.6788L14.3289 28.0014L14.2702 28.0308C14.1475 28.0921 13.9689 28.1428 13.7582 28.1428ZM13.0542 26.5108C13.0222 26.6014 12.9875 26.8254 13.2569 27.0974C13.5289 27.3694 13.7609 27.3588 13.8675 27.3321L16.0222 25.1614C16.0569 25.0761 16.1102 24.8361 15.8249 24.5481C15.5395 24.2601 15.2942 24.3108 15.2089 24.3428L13.0542 26.5108Z" fill="#24638E"/>
<path d="M20.3286 30.8668C19.4459 30.8668 19.0646 30.2774 18.9872 29.9654L18.9766 29.8694L18.9899 26.5628C19.0726 26.2428 19.4672 25.6348 20.3579 25.6348C21.2566 25.6348 21.6379 26.2481 21.7126 26.5708L21.7232 26.6614V29.9468L21.7019 30.0081C21.6006 30.3281 21.1899 30.8668 20.3286 30.8668ZM19.7766 29.8028C19.8139 29.8828 19.9446 30.0668 20.3286 30.0668C20.7126 30.0668 20.8699 29.8881 20.9232 29.7948V26.7254C20.8859 26.6401 20.7579 26.4348 20.3579 26.4348C19.9499 26.4348 19.8139 26.6481 19.7766 26.7308V29.8028Z" fill="#24638E"/>
<path d="M26.9528 28.1464C26.6968 28.1464 26.4808 28.0691 26.3528 27.9917L26.2781 27.9331L23.9714 25.6104L23.9421 25.5517C23.7928 25.2504 23.7021 24.5811 24.3101 23.9704C24.9368 23.3411 25.6221 23.4904 25.8968 23.6557L25.9741 23.7171L28.2861 26.0637C28.4514 26.3491 28.6008 27.0557 27.9741 27.6904C27.6274 28.0371 27.2594 28.1464 26.9528 28.1464ZM26.8034 27.3224C26.8888 27.3571 27.1261 27.4077 27.4061 27.1224C27.6941 26.8317 27.6408 26.5837 27.6088 26.4957L25.4541 24.3251C25.3714 24.2957 25.1501 24.2584 24.8781 24.5304C24.6061 24.8051 24.6221 25.0477 24.6461 25.1517L26.8034 27.3224Z" fill="#24638E"/>
</svg>
