<svg width="40" height="40" viewBox="0 0 40 40" fill="none" xmlns="http://www.w3.org/2000/svg">
<g clip-path="url(#clip0_0_16547)">
<path d="M20 40C8.97067 40 0 31.0267 0 20C0 8.97333 8.97067 0 20 0C31.0293 0 40 8.97333 40 20C40 31.0267 31.0293 40 20 40ZM20 1.06667C9.56 1.06667 1.06667 9.56 1.06667 20C1.06667 30.44 9.56 38.9333 20 38.9333C30.44 38.9333 38.9333 30.44 38.9333 20C38.9333 9.56 30.44 1.06667 20 1.06667Z" fill="#24638E"/>
<path d="M27.3041 27.0527C25.3014 27.0527 23.8748 26.362 22.9414 24.9407C22.2294 23.858 20.5574 21.33 20.5574 21.33C20.3441 20.9967 20.2721 20.5994 20.3521 20.2314C20.4294 19.89 20.6294 19.5994 20.9201 19.418C21.5441 19.0314 22.3921 19.2474 22.8161 19.898L23.1174 20.3114V15.138C23.1174 14.4954 23.6401 13.97 24.2854 13.97C24.6348 13.97 24.9494 14.1247 25.1654 14.37V14.1114C25.1654 13.4687 25.6881 12.9434 26.3334 12.9434C26.8988 12.9434 27.3734 13.3487 27.4801 13.8847C27.6934 13.6234 28.0188 13.458 28.3814 13.458C29.0241 13.458 29.5494 13.9807 29.5494 14.626V15.394C29.7628 15.1487 30.0801 14.9914 30.4294 14.9914C31.0748 14.9914 31.6001 15.514 31.6001 16.1594V23.0687C31.5974 23.7354 31.3894 27.0527 27.3041 27.0527ZM21.2294 20.8954C21.2321 20.9007 22.8988 23.4207 23.6108 24.5034C24.3948 25.698 25.5681 26.2554 27.3041 26.2554C30.5441 26.2554 30.7974 23.8207 30.7974 23.074V16.1594C30.7974 15.9567 30.6321 15.7914 30.4268 15.7914C30.2241 15.7914 30.0588 15.9567 30.0588 16.1594V19.4874C30.0588 19.8474 29.7654 20.1434 29.4028 20.1434C29.0401 20.1434 28.7441 19.85 28.7441 19.4874V14.626C28.7441 14.4207 28.5841 14.258 28.3761 14.258C28.1734 14.258 28.0108 14.4234 28.0108 14.626V18.978C28.0108 19.338 27.7174 19.6314 27.3548 19.6314C26.9921 19.6314 26.6961 19.338 26.6961 18.978V14.114C26.6961 13.9114 26.5308 13.746 26.3281 13.746C26.1254 13.746 25.9601 13.9114 25.9601 14.114V18.978C25.9601 19.338 25.6668 19.6314 25.3041 19.6314C24.9441 19.6314 24.6481 19.338 24.6481 18.978V15.138C24.6481 14.9354 24.4828 14.77 24.2801 14.77C24.0774 14.77 23.9121 14.9354 23.9121 15.138V22.7594L22.1521 20.3514C21.9521 20.0447 21.5921 19.938 21.3388 20.0954C21.2028 20.1807 21.1494 20.3114 21.1281 20.4047C21.1014 20.5674 21.1334 20.746 21.2294 20.8954Z" fill="#24638E"/>
<path d="M19.1048 21.113C19.1048 21.113 17.4328 23.641 16.7208 24.7237C16.0088 25.809 14.8541 26.6543 12.6941 26.6543C9.12078 26.6543 8.80078 23.897 8.80078 23.073V16.161C8.80078 15.737 9.14478 15.393 9.57145 15.393C9.99278 15.393 10.3394 15.737 10.3394 16.161V19.489C10.3394 19.6277 10.4514 19.745 10.5928 19.745C10.7368 19.745 10.8514 19.6277 10.8514 19.489V14.6277C10.8514 14.201 11.1928 13.8597 11.6194 13.8597C12.0434 13.8597 12.3874 14.201 12.3874 14.6277V18.9797C12.3874 19.1183 12.5048 19.233 12.6434 19.233C12.7848 19.233 12.9021 19.1183 12.9021 18.9797V14.1157C12.9021 13.6943 13.2434 13.3477 13.6701 13.3477C14.0941 13.3477 14.4381 13.6917 14.4381 14.1157V18.9797C14.4381 19.1183 14.5528 19.233 14.6968 19.233C14.8355 19.233 14.9501 19.1183 14.9501 18.9797V15.1397C14.9501 14.7157 15.2941 14.3717 15.7181 14.3717C16.1421 14.3717 16.4861 14.713 16.4861 15.1397V21.537L17.5235 20.1183C17.8301 19.6463 18.4301 19.4863 18.8701 19.7583C19.2995 20.0357 19.4088 20.641 19.1048 21.113Z" fill="#24638E"/>
</g>
<defs>
<clipPath id="clip0_0_16547">
<rect width="40" height="40" fill="white"/>
</clipPath>
</defs>
</svg>
