<svg width="41" height="40" viewBox="0 0 41 40" fill="none" xmlns="http://www.w3.org/2000/svg">
<path d="M20.2187 40C9.18941 40 0.21875 31.0267 0.21875 20C0.21875 8.97333 9.18941 0 20.2187 0C31.2481 0 40.2187 8.97333 40.2187 20C40.2187 31.0267 31.2481 40 20.2187 40ZM20.2187 1.06667C9.77875 1.06667 1.28542 9.56 1.28542 20C1.28542 30.44 9.77875 38.9333 20.2187 38.9333C30.6587 38.9333 39.1521 30.44 39.1521 20C39.1521 9.56 30.6587 1.06667 20.2187 1.06667Z" fill="#24638E"/>
<path d="M10.4072 19.3392L11.3192 19.3366C12.4792 19.3339 13.1645 18.7526 13.1618 17.8539C13.1592 16.9072 12.5192 16.4352 11.4525 16.4246C10.8872 16.4246 10.5672 16.4726 10.3992 16.4992L10.4072 19.3392ZM8.08984 14.9179C8.83651 14.7952 9.94851 14.7019 11.1885 14.6992C12.7138 14.6966 13.7832 14.9206 14.5165 15.4992C15.1298 15.9846 15.4658 16.7046 15.4685 17.6512C15.4712 18.9632 14.5405 19.8672 13.6605 20.1872V20.2352C14.3805 20.5206 14.7752 21.2139 15.0392 22.1579C15.3618 23.3179 15.6845 24.6619 15.8845 25.0566L13.5058 25.0619C13.3378 24.7766 13.0898 23.9366 12.7805 22.6646C12.5032 21.3846 12.0578 21.0326 11.1112 21.0219L10.4125 21.0246L10.4178 25.0646L8.11118 25.0699L8.08984 14.9179Z" fill="#24638E"/>
<path d="M23.1567 18.2682L22.09 18.2708L22.082 15.0842L25.842 15.0762L25.8447 16.1428L23.1514 16.1482L23.1567 18.2682Z" fill="#24638E"/>
<path d="M32.3538 18.2492L31.2871 18.2518L31.2818 16.1318L28.5964 16.1372L28.5938 15.0705L32.3458 15.0625L32.3538 18.2492Z" fill="#24638E"/>
<path d="M32.3484 25.2707L28.5964 25.2787L28.5938 24.212L31.2791 24.2067L31.2764 22.0866L32.3431 22.084L32.3484 25.2707Z" fill="#24638E"/>
<path d="M25.8591 25.2849L22.0991 25.2929L22.0938 22.1062L23.1604 22.1035L23.1631 24.2235L25.8564 24.2182L25.8591 25.2849Z" fill="#24638E"/>
<path d="M19.3749 24.8533C19.1216 24.9866 18.5562 25.168 17.8362 25.1706C16.2149 25.1733 15.1616 24.0773 15.1563 22.4373C15.1536 20.784 16.2843 19.5893 18.0309 19.584C18.6096 19.584 19.1189 19.728 19.3856 19.8613L19.1669 20.616C18.9323 20.4827 18.5669 20.3627 18.0336 20.3653C16.8016 20.368 16.1429 21.2747 16.1456 22.3946C16.1483 23.6346 16.9509 24.4 18.0096 24.3973C18.5643 24.3973 18.9296 24.248 19.2096 24.128L19.3749 24.8533Z" fill="#24638E"/>
</svg>
