<svg width="41" height="40" viewBox="0 0 41 40" fill="none" xmlns="http://www.w3.org/2000/svg">
<g clip-path="url(#clip0_0_16572)">
<path d="M20.8906 40C9.86129 40 0.890625 31.0293 0.890625 20C0.890625 8.97067 9.86129 0 20.8906 0C31.92 0 40.8906 8.97067 40.8906 20C40.8906 31.0293 31.92 40 20.8906 40ZM20.8906 1.06667C10.4506 1.06667 1.95729 9.56 1.95729 20C1.95729 30.44 10.4506 38.9333 20.8906 38.9333C31.3306 38.9333 39.824 30.44 39.824 20C39.824 9.56 31.3306 1.06667 20.8906 1.06667Z" fill="#24638E"/>
<path d="M17.047 14.6445H12.4844V26.4179H14.7804V21.9859H17.047C19.479 21.9859 20.9324 20.3165 20.9324 18.3165C20.9297 16.3139 19.4764 14.6445 17.047 14.6445ZM16.9297 19.9219H14.7777V16.6952H16.9297C17.9724 16.6952 18.6337 17.3565 18.6337 18.3165C18.6364 19.2765 17.9724 19.9219 16.9297 19.9219Z" fill="#24638E"/>
<path d="M14.9103 26.5517H12.3477V14.5117H17.0437C19.409 14.5117 21.0623 16.0771 21.0623 18.3171C21.0623 20.5571 19.409 22.1197 17.0437 22.1197H14.9103V26.5517ZM12.617 26.285H14.6463V21.853H17.0463C19.2543 21.853 20.7983 20.3997 20.7983 18.3171C20.7983 16.2344 19.2543 14.7784 17.0463 14.7784H12.617V26.285ZM16.929 20.0557H14.6437V16.5624H16.929C18.0277 16.5624 18.7663 17.2691 18.7663 18.3171C18.7663 19.3571 18.0277 20.0557 16.929 20.0557ZM14.9103 19.789H16.929C17.8837 19.789 18.4997 19.2104 18.4997 18.3171C18.4997 17.4131 17.8837 16.8291 16.929 16.8291H14.9103V19.789Z" fill="#24638E"/>
<path d="M25.0629 15.3977V23.9097H29.9669V25.7043H22.9536V15.3977H25.0629ZM25.8629 14.5977H25.0629H22.9563H22.1562V15.3977V25.7043V26.5043H22.9563H29.9696H30.7696V25.7043V23.9097V23.1097H29.9696H25.8629V15.3977V14.5977Z" fill="#24638E"/>
</g>
<defs>
<clipPath id="clip0_0_16572">
<rect width="40" height="40" fill="white" transform="translate(0.890625)"/>
</clipPath>
</defs>
</svg>
